<svg width="1428" height="314" viewBox="0 0 1428 314" fill="none" xmlns="http://www.w3.org/2000/svg">
<path d="M127.464 58.1533C127.856 58.1519 128.248 58.1506 128.652 58.1492C129.081 58.1495 129.51 58.1498 129.952 58.1501C130.637 58.1486 130.637 58.1486 131.336 58.147C132.604 58.1442 133.872 58.1436 135.14 58.1433C136.508 58.1427 137.876 58.14 139.243 58.1377C142.234 58.1329 145.225 58.1308 148.216 58.1293C150.084 58.1284 151.952 58.1269 153.821 58.1253C158.996 58.1211 164.17 58.1175 169.345 58.1163C169.842 58.1162 169.842 58.1162 170.349 58.1161C170.847 58.1159 170.847 58.1159 171.355 58.1158C172.027 58.1157 172.7 58.1155 173.373 58.1154C173.706 58.1153 174.04 58.1152 174.384 58.1151C179.787 58.1137 185.19 58.1077 190.593 58.0995C196.143 58.0913 201.694 58.0869 207.244 58.0865C210.359 58.0862 213.474 58.0842 216.589 58.0779C219.242 58.0725 221.896 58.0707 224.549 58.0736C225.901 58.075 227.254 58.0747 228.607 58.0698C229.847 58.0653 231.088 58.0658 232.329 58.07C232.985 58.071 233.642 58.0669 234.298 58.0625C240.789 58.0999 245.106 60.307 249.624 64.8233C253.376 68.8336 254.316 73.6738 254.287 79.005C254.288 79.477 254.29 79.9491 254.292 80.4212C254.296 81.7084 254.294 82.9956 254.291 84.2829C254.288 85.675 254.292 87.0671 254.295 88.4593C254.299 91.1825 254.298 93.9057 254.295 96.629C254.293 98.843 254.293 101.057 254.294 103.271C254.294 103.587 254.294 103.902 254.294 104.228C254.295 104.869 254.295 105.51 254.295 106.151C254.298 112.159 254.295 118.166 254.289 124.173C254.285 129.323 254.285 134.472 254.29 139.622C254.296 145.609 254.298 151.595 254.295 157.581C254.294 158.22 254.294 158.859 254.294 159.498C254.294 159.812 254.294 160.126 254.293 160.45C254.292 162.66 254.294 164.871 254.296 167.081C254.299 169.776 254.299 172.471 254.293 175.167C254.29 176.541 254.289 177.915 254.293 179.289C254.296 180.548 254.294 181.808 254.288 183.068C254.287 183.735 254.29 184.403 254.294 185.07C254.256 190.588 252.433 195.342 248.576 199.342C243.342 203.765 238.233 204.738 231.564 204.672C230.975 204.67 230.387 204.668 229.799 204.667C228.266 204.663 226.732 204.653 225.198 204.642C223.351 204.629 221.503 204.624 219.655 204.618C216.861 204.608 214.066 204.588 211.272 204.57C211.272 196.749 211.272 188.929 211.272 180.872C219.356 180.763 219.356 180.763 221.9 180.736C222.568 180.725 223.236 180.714 223.903 180.701C224.248 180.699 224.593 180.697 224.948 180.695C227.352 180.658 227.352 180.658 229.401 179.478C230.138 178.372 230.186 178.108 230.187 176.844C230.189 176.517 230.191 176.189 230.193 175.852C230.192 175.491 230.19 175.131 230.189 174.759C230.19 174.377 230.192 173.994 230.193 173.6C230.197 172.312 230.195 171.024 230.194 169.735C230.195 168.815 230.197 167.894 230.199 166.973C230.204 164.727 230.204 162.481 230.204 160.235C230.203 158.41 230.204 156.585 230.205 154.76C230.205 154.37 230.205 154.37 230.206 153.973C230.206 153.446 230.207 152.919 230.207 152.391C230.211 147.444 230.21 142.497 230.208 137.55C230.206 133.022 230.21 128.495 230.217 123.968C230.223 119.321 230.226 114.674 230.225 110.028C230.224 107.418 230.225 104.809 230.23 102.199C230.234 99.9773 230.235 97.7556 230.231 95.5338C230.228 94.4 230.229 93.2663 230.232 92.1326C230.236 90.9039 230.233 89.6754 230.229 88.4467C230.231 88.0877 230.234 87.7288 230.236 87.3589C230.239 84.9659 230.239 84.9659 229.052 82.9427C228.02 82.316 227.253 82.1583 226.054 82.157C225.731 82.155 225.409 82.1529 225.077 82.1508C224.724 82.1522 224.371 82.1535 224.008 82.1548C223.632 82.1535 223.256 82.1522 222.869 82.1508C221.605 82.1472 220.342 82.1486 219.078 82.15C218.174 82.1485 217.27 82.1467 216.366 82.1446C214.162 82.1401 211.959 82.1395 209.755 82.1403C207.964 82.1409 206.174 82.1403 204.383 82.1389C204.128 82.1386 203.873 82.1384 203.611 82.1382C203.093 82.1378 202.576 82.1374 202.058 82.137C197.204 82.1332 192.349 82.1339 187.495 82.136C183.052 82.1378 178.61 82.1339 174.168 82.1273C169.608 82.1205 165.048 82.1177 160.488 82.119C157.927 82.1196 155.366 82.1188 152.806 82.1138C150.398 82.1093 147.991 82.1101 145.583 82.1147C144.699 82.1155 143.814 82.1145 142.929 82.1117C141.724 82.1081 140.519 82.1108 139.313 82.1153C138.785 82.1114 138.785 82.1114 138.246 82.1075C135.878 82.1123 135.878 82.1123 133.876 83.2912C133.243 84.3292 133.091 85.1029 133.09 86.3105C133.087 86.8011 133.087 86.8011 133.083 87.3015C133.085 87.8388 133.085 87.8388 133.087 88.3869C133.086 88.7682 133.085 89.1496 133.083 89.5425C133.08 90.8249 133.081 92.1071 133.083 93.3895C133.081 94.307 133.079 95.2246 133.077 96.1421C133.073 98.3784 133.072 100.615 133.073 102.851C133.074 104.668 133.073 106.486 133.071 108.303C133.071 108.562 133.071 108.82 133.071 109.086C133.07 109.612 133.07 110.137 133.07 110.662C133.066 115.588 133.066 120.515 133.069 125.441C133.07 129.95 133.066 134.458 133.06 138.966C133.053 143.594 133.05 148.221 133.052 152.849C133.052 155.448 133.051 158.046 133.046 160.645C133.042 162.857 133.042 165.069 133.046 167.282C133.048 168.41 133.048 169.539 133.044 170.668C133.041 171.891 133.043 173.114 133.048 174.338C133.044 174.874 133.044 174.874 133.04 175.421C133.04 177.808 133.04 177.808 134.224 179.826C135.197 180.484 135.975 180.612 137.136 180.62C137.438 180.624 137.739 180.628 138.049 180.632C138.54 180.633 138.54 180.633 139.041 180.634C139.388 180.638 139.735 180.641 140.093 180.645C141.24 180.656 142.387 180.662 143.534 180.667C144.329 180.674 145.124 180.681 145.92 180.688C148.013 180.706 150.106 180.72 152.199 180.733C154.71 180.749 157.222 180.77 159.733 180.791C163.549 180.822 167.364 180.846 171.179 180.872C171.179 188.692 171.179 196.512 171.179 204.57C159.895 204.612 159.895 204.612 155.149 204.621C151.878 204.627 148.607 204.634 145.337 204.649C142.954 204.659 140.572 204.666 138.189 204.668C136.929 204.669 135.669 204.673 134.409 204.68C132.998 204.689 131.587 204.689 130.176 204.688C129.764 204.692 129.352 204.696 128.927 204.7C122.792 204.677 118.32 202.596 114.003 198.297C113.803 198.104 113.602 197.911 113.395 197.713C109.773 193.923 109.017 188.898 109.032 183.905C109.031 183.436 109.029 182.966 109.028 182.497C109.024 181.212 109.025 179.927 109.026 178.642C109.027 177.254 109.024 175.866 109.021 174.478C109.017 171.761 109.016 169.044 109.017 166.327C109.018 164.117 109.017 161.908 109.016 159.698C109.016 159.384 109.015 159.069 109.015 158.745C109.015 158.105 109.014 157.466 109.014 156.827C109.01 150.833 109.011 144.839 109.013 138.844C109.015 133.366 109.011 127.887 109.004 122.408C108.997 116.778 108.995 111.148 108.996 105.518C108.997 102.359 108.996 99.1996 108.991 96.0405C108.987 93.3507 108.986 90.6609 108.99 87.971C108.992 86.5998 108.993 85.2286 108.989 83.8574C108.985 82.5997 108.986 81.3422 108.991 80.0845C108.992 79.4191 108.988 78.7536 108.984 78.0882C109.023 71.8255 111.117 67.4799 115.354 62.991C118.5 59.9496 123.1 58.1589 127.464 58.1533Z" fill="#485B7E"/>
<path d="M80.5065 109.327C81.1029 109.329 81.6992 109.33 82.2956 109.331C83.8529 109.335 85.41 109.345 86.9672 109.357C88.8422 109.37 90.7173 109.375 92.5924 109.381C95.4298 109.391 98.267 109.411 101.104 109.429C101.104 117.249 101.104 125.07 101.104 133.127C92.8462 133.192 92.8462 133.192 90.2468 133.199C89.5648 133.209 88.8829 133.219 88.2009 133.229C87.8485 133.228 87.4961 133.226 87.133 133.225C85.0472 133.262 85.0472 133.262 83.2808 134.319C82.4317 135.486 82.2345 136.037 82.2305 137.454C82.2278 137.942 82.2278 137.942 82.2251 138.44C82.2248 138.98 82.2248 138.98 82.2246 139.531C82.2231 139.911 82.2215 140.292 82.2199 140.684C82.2153 141.967 82.2131 143.251 82.211 144.535C82.2082 145.452 82.2054 146.368 82.2024 147.285C82.1938 150.043 82.1887 152.801 82.1842 155.559C82.1829 156.337 82.1815 157.116 82.1801 157.895C82.1713 162.729 82.1636 167.563 82.1593 172.397C82.1583 173.517 82.1572 174.637 82.1562 175.757C82.1559 176.035 82.1557 176.314 82.1554 176.6C82.151 181.111 82.1394 185.621 82.1249 190.131C82.1101 194.76 82.1019 199.389 82.1 204.018C82.0989 206.617 82.0947 209.217 82.0833 211.817C82.0735 214.031 82.0697 216.244 82.0736 218.458C82.0754 219.588 82.0734 220.717 82.0657 221.847C82.0579 223.072 82.0607 224.296 82.0663 225.521C82.0614 225.878 82.0566 226.235 82.0516 226.602C82.0692 228.174 82.1002 229.311 83.0977 230.574C84.2813 231.638 85.0824 231.796 86.6167 231.799C86.9356 231.8 87.2546 231.801 87.5832 231.803C87.9342 231.803 88.2851 231.802 88.6467 231.802C89.0191 231.803 89.3915 231.804 89.7752 231.805C91.0294 231.808 92.2836 231.809 93.5377 231.809C94.4344 231.811 95.3311 231.813 96.2277 231.814C98.6682 231.819 101.109 231.821 103.549 231.823C105.073 231.824 106.596 231.825 108.12 231.827C112.338 231.831 116.555 231.835 120.773 231.836C121.043 231.836 121.313 231.836 121.591 231.836C121.862 231.836 122.133 231.836 122.412 231.836C122.96 231.836 123.508 231.837 124.057 231.837C124.329 231.837 124.601 231.837 124.881 231.837C129.289 231.838 133.697 231.844 138.106 231.853C142.631 231.861 147.156 231.865 151.681 231.866C154.222 231.866 156.763 231.868 159.304 231.874C161.693 231.88 164.083 231.881 166.473 231.878C167.351 231.877 168.228 231.879 169.106 231.882C170.303 231.887 171.5 231.885 172.697 231.881C173.22 231.885 173.22 231.885 173.753 231.89C175.591 231.876 176.928 231.771 178.501 230.707C179.462 229.266 179.59 228.001 179.592 226.297C179.593 225.979 179.594 225.662 179.595 225.334C179.594 224.989 179.594 224.643 179.593 224.286C179.594 223.917 179.595 223.547 179.596 223.166C179.598 221.925 179.598 220.684 179.597 219.443C179.598 218.554 179.6 217.665 179.601 216.776C179.604 214.61 179.605 212.445 179.605 210.279C179.605 208.519 179.606 206.759 179.607 204.999C179.61 200.007 179.612 195.016 179.611 190.024C179.611 189.755 179.611 189.486 179.611 189.209C179.611 188.94 179.611 188.67 179.611 188.393C179.611 184.027 179.615 179.661 179.619 175.296C179.624 170.812 179.627 166.329 179.627 161.845C179.626 159.328 179.627 156.811 179.631 154.294C179.635 151.928 179.635 149.561 179.632 147.194C179.632 146.325 179.632 145.456 179.635 144.587C179.637 143.402 179.636 142.216 179.633 141.031C179.636 140.514 179.636 140.514 179.638 139.987C179.627 137.802 179.609 135.78 178.151 134.032C176.645 133.23 175.327 133.276 173.644 133.285C173.297 133.282 172.95 133.278 172.592 133.274C171.447 133.264 170.302 133.264 169.157 133.263C168.362 133.258 167.568 133.252 166.773 133.246C164.683 133.23 162.592 133.223 160.502 133.218C157.993 133.21 155.484 133.192 152.976 133.175C149.166 133.151 145.356 133.14 141.546 133.127C141.546 125.307 141.546 117.486 141.546 109.429C152.83 109.387 152.83 109.387 157.576 109.378C160.847 109.372 164.118 109.364 167.388 109.35C169.771 109.34 172.154 109.333 174.536 109.331C175.796 109.329 177.056 109.326 178.316 109.318C179.727 109.31 181.138 109.31 182.549 109.31C182.961 109.306 183.373 109.303 183.798 109.299C187.528 109.313 190.955 109.921 194.124 111.956C194.457 112.163 194.457 112.163 194.797 112.376C199.092 115.127 201.619 119.143 203.098 124.002C203.287 124.924 203.299 125.781 203.302 126.722C203.304 127.325 203.304 127.325 203.307 127.939C203.307 128.381 203.307 128.822 203.307 129.277C203.309 129.751 203.31 130.224 203.312 130.698C203.316 132 203.318 133.303 203.32 134.606C203.322 136.01 203.326 137.415 203.33 138.819C203.338 142.213 203.343 145.606 203.348 148.999C203.349 149.958 203.351 150.917 203.352 151.875C203.361 157.832 203.368 163.789 203.373 169.746C203.374 171.125 203.375 172.505 203.376 173.885C203.376 174.228 203.376 174.571 203.377 174.924C203.381 180.474 203.393 186.025 203.407 191.576C203.422 197.277 203.43 202.979 203.432 208.681C203.433 211.881 203.437 215.081 203.449 218.281C203.459 221.007 203.462 223.733 203.458 226.46C203.457 227.849 203.458 229.239 203.466 230.629C203.474 231.904 203.474 233.179 203.467 234.455C203.466 235.128 203.473 235.801 203.48 236.475C203.432 241.834 201.312 246.522 197.719 250.441C196.195 251.907 194.657 252.951 192.773 253.905C192.551 254.017 192.33 254.129 192.101 254.245C188.824 255.784 185.468 255.902 181.9 255.893C181.218 255.895 181.218 255.895 180.522 255.898C179.268 255.902 178.014 255.902 176.76 255.901C175.404 255.901 174.048 255.905 172.692 255.908C170.039 255.914 167.386 255.916 164.732 255.916C162.574 255.916 160.416 255.918 158.258 255.92C152.132 255.926 146.005 255.929 139.879 255.929C139.549 255.929 139.219 255.929 138.879 255.929C138.549 255.929 138.218 255.929 137.878 255.929C132.528 255.928 127.177 255.935 121.827 255.945C116.325 255.955 110.823 255.96 105.321 255.959C102.236 255.959 99.1499 255.961 96.0642 255.968C93.4367 255.975 90.8092 255.976 88.1817 255.971C86.8429 255.969 85.5043 255.969 84.1656 255.975C75.995 256.01 69.4983 255.767 63.3595 249.812C60.0286 246.378 58.1829 241.849 58.1768 237.057C58.1754 236.661 58.1741 236.265 58.1727 235.857C58.173 235.425 58.1733 234.993 58.1736 234.548C58.1727 234.082 58.1717 233.616 58.1705 233.15C58.1677 231.872 58.167 230.593 58.1668 229.315C58.1661 227.935 58.1635 226.555 58.1611 225.175C58.1564 222.159 58.1543 219.142 58.1528 216.126C58.1518 214.242 58.1503 212.357 58.1488 210.473C58.1445 205.253 58.1409 200.033 58.1397 194.813C58.1397 194.48 58.1396 194.146 58.1395 193.801C58.1394 193.467 58.1394 193.132 58.1393 192.787C58.1391 192.109 58.139 191.431 58.1388 190.752C58.1387 190.416 58.1387 190.079 58.1386 189.733C58.1372 184.283 58.1311 178.834 58.123 173.384C58.1147 167.785 58.1104 162.187 58.11 156.588C58.1097 153.446 58.1077 150.305 58.1013 147.163C58.096 144.487 58.0942 141.811 58.0971 139.135C58.0984 137.771 58.0981 136.407 58.0932 135.043C58.0887 133.791 58.0892 132.54 58.0934 131.289C58.0944 130.627 58.0903 129.965 58.0859 129.303C58.1153 124.166 59.4875 119.131 63.0871 115.31C68.3618 110.48 73.5332 109.259 80.5065 109.327Z" fill="#486BAA"/>
<path d="M1114.58 105.596C1124.13 105.596 1133.68 105.596 1143.51 105.596C1144.45 107.699 1145.2 109.551 1145.76 111.738C1146.31 113.796 1146.9 115.823 1147.59 117.837C1148.09 119.302 1148.54 120.74 1148.89 122.248C1149.31 123.833 1149.88 125.38 1150.41 126.931C1150.77 128.04 1151.05 129.145 1151.33 130.277C1151.74 131.801 1152.31 133.276 1152.84 134.761C1154.1 138.316 1155.18 141.899 1156.18 145.535C1156.8 147.741 1157.48 149.931 1158.16 152.121C1158.47 153.139 1158.79 154.158 1159.09 155.18C1159.71 157.263 1160.38 159.321 1161.08 161.378C1161.99 164.078 1162.83 166.787 1163.62 169.524C1164.19 171.497 1164.79 173.462 1165.39 175.427C1165.55 175.953 1165.55 175.953 1165.71 176.489C1166.28 178.337 1166.28 178.337 1166.87 180.175C1168.33 176.951 1169.39 173.656 1170.43 170.28C1170.91 168.733 1171.39 167.19 1171.88 165.647C1172.04 165.172 1172.04 165.172 1172.19 164.688C1173.56 160.405 1174.99 156.145 1176.43 151.884C1177.19 149.617 1177.93 147.345 1178.64 145.064C1180.4 139.434 1182.23 133.812 1184.28 128.28C1184.59 127.384 1184.87 126.491 1185.14 125.583C1185.73 123.601 1186.39 121.646 1187.05 119.688C1188.04 116.745 1188.97 113.796 1189.81 110.806C1190.35 109.047 1191 107.324 1191.63 105.596C1201.29 105.596 1210.95 105.596 1220.91 105.596C1220.91 138.372 1220.91 171.149 1220.91 204.919C1214.24 204.919 1207.57 204.919 1200.69 204.919C1200.68 197.179 1200.68 189.439 1200.67 181.699C1200.67 178.105 1200.67 174.511 1200.66 170.918C1200.66 167.786 1200.66 164.654 1200.66 161.522C1200.66 159.863 1200.66 158.204 1200.65 156.546C1200.65 154.985 1200.65 153.424 1200.65 151.863C1200.65 151.29 1200.65 150.717 1200.65 150.144C1200.65 149.361 1200.65 148.579 1200.65 147.797C1200.65 147.14 1200.65 147.14 1200.65 146.47C1200.69 145.458 1200.81 144.566 1201.04 143.582C1201.08 143.08 1201.1 142.577 1201.11 142.073C1201.12 141.787 1201.12 141.501 1201.13 141.206C1201.14 140.903 1201.14 140.599 1201.15 140.287C1201.16 139.815 1201.16 139.815 1201.17 139.333C1201.19 138.332 1201.21 137.33 1201.24 136.329C1201.25 135.649 1201.27 134.968 1201.28 134.288C1201.32 132.623 1201.35 130.959 1201.39 129.294C1200.79 130.88 1200.2 132.464 1199.67 134.073C1199.55 134.428 1199.43 134.782 1199.31 135.147C1199.19 135.508 1199.07 135.87 1198.95 136.242C1198.77 136.782 1198.77 136.782 1198.59 137.333C1198.35 138.042 1198.11 138.751 1197.88 139.461C1197.68 140.071 1197.47 140.681 1197.27 141.291C1196.64 143.146 1196.08 145.014 1195.53 146.893C1194.44 150.554 1193.18 154.139 1191.87 157.721C1191.02 160.045 1190.27 162.379 1189.59 164.757C1188.53 168.397 1187.29 171.978 1186.08 175.568C1185.7 176.682 1185.33 177.797 1184.96 178.913C1184.34 180.785 1183.67 182.638 1183 184.49C1182.56 185.759 1182.17 187.035 1181.79 188.322C1181.34 189.83 1180.86 191.33 1180.38 192.83C1180.28 193.156 1180.17 193.482 1180.07 193.818C1179.3 196.216 1178.52 198.609 1177.72 200.998C1177.62 201.311 1177.52 201.625 1177.41 201.947C1177.31 202.236 1177.22 202.525 1177.12 202.822C1177.03 203.076 1176.95 203.331 1176.86 203.592C1176.63 204.222 1176.63 204.222 1176.29 204.919C1169.73 204.919 1163.17 204.919 1156.41 204.919C1155.48 202.576 1154.67 200.362 1154.02 197.949C1153.36 195.58 1152.66 193.239 1151.86 190.913C1151.07 188.603 1150.39 186.279 1149.75 183.921C1149.25 182.068 1148.67 180.25 1148.05 178.433C1147.24 176.087 1146.54 173.728 1145.9 171.336C1145.08 168.349 1144.16 165.395 1143.19 162.459C1141.61 157.742 1140.16 152.994 1138.78 148.217C1138.17 146.111 1137.53 144.031 1136.81 141.958C1136.55 141.176 1136.34 140.397 1136.15 139.596C1135.89 138.537 1135.56 137.617 1135.15 136.612C1134.98 136.036 1134.81 135.46 1134.65 134.882C1134.29 133.604 1133.91 132.332 1133.54 131.058C1133.42 130.651 1133.42 130.651 1133.29 130.235C1133.1 129.573 1132.9 128.911 1132.71 128.248C1132.73 128.518 1132.75 128.788 1132.77 129.066C1133.16 134.718 1133.47 140.369 1133.6 146.033C1133.61 146.337 1133.61 146.641 1133.62 146.955C1133.86 157.355 1133.79 167.762 1133.78 178.165C1133.77 181.091 1133.77 184.016 1133.77 186.942C1133.77 192.934 1133.76 198.926 1133.75 204.919C1127.43 204.919 1121.1 204.919 1114.58 204.919C1114.58 172.142 1114.58 139.366 1114.58 105.596Z" fill="#476384"/>
<path d="M457.406 104.899C462.871 104.875 468.336 104.856 473.8 104.845C476.338 104.84 478.877 104.833 481.415 104.821C483.631 104.81 485.847 104.803 488.063 104.801C489.233 104.8 490.403 104.796 491.573 104.789C501.363 104.731 512.209 105.269 520.509 111.172C520.509 111.402 520.509 111.632 520.509 111.869C520.969 111.984 521.429 112.099 521.903 112.218C521.903 112.448 521.903 112.678 521.903 112.915C522.594 113.26 522.594 113.26 523.298 113.612C523.298 113.842 523.298 114.072 523.298 114.309C523.492 114.374 523.686 114.438 523.886 114.505C526.55 116.16 527.285 119.515 528.179 122.325C528.307 122.674 528.436 123.024 528.568 123.384C530.271 129.503 529.195 137.53 526.174 143.039C523.277 147.372 519.734 150.426 514.582 151.599C514.982 151.733 515.381 151.868 515.793 152.007C516.326 152.19 516.86 152.374 517.393 152.557C517.786 152.689 517.786 152.689 518.188 152.824C519.903 153.418 521.4 154.137 522.949 155.084C522.949 155.314 522.949 155.544 522.949 155.781C523.152 155.814 523.354 155.847 523.562 155.881C525.728 156.568 527.199 158.881 528.266 160.769C529.223 162.646 530.001 164.57 530.619 166.584C530.744 166.971 530.868 167.359 530.996 167.758C531.55 170.041 531.469 172.416 531.469 174.752C531.47 175.125 531.47 175.125 531.471 175.505C531.467 179.39 531.119 182.851 529.573 186.449C529.457 186.733 529.341 187.017 529.221 187.309C528.912 187.986 528.568 188.604 528.179 189.237C528.045 189.472 527.912 189.708 527.774 189.95C526.702 191.713 525.393 193.174 523.952 194.639C523.772 194.823 523.593 195.007 523.408 195.197C521.804 196.78 521.804 196.78 520.509 196.904C520.509 197.134 520.509 197.364 520.509 197.601C519.689 198.045 518.868 198.488 518.047 198.93C517.818 199.054 517.589 199.178 517.353 199.306C514.815 200.668 512.241 201.683 509.483 202.502C509.207 202.591 508.93 202.68 508.644 202.772C502.246 204.663 495.244 204.323 488.647 204.303C487.752 204.302 486.856 204.302 485.961 204.302C484.102 204.302 482.243 204.299 480.385 204.294C478.236 204.289 476.087 204.287 473.939 204.287C471.86 204.287 469.781 204.285 467.702 204.283C466.82 204.282 465.939 204.281 465.058 204.281C463.835 204.28 462.613 204.277 461.391 204.273C461.025 204.273 460.66 204.273 460.283 204.274C459.953 204.272 459.623 204.271 459.283 204.269C458.995 204.268 458.706 204.268 458.409 204.267C457.755 204.222 457.755 204.222 457.406 203.874C457.373 203.345 457.363 202.815 457.363 202.285C457.363 201.94 457.362 201.594 457.361 201.238C457.362 200.854 457.363 200.47 457.364 200.075C457.364 199.67 457.364 199.266 457.364 198.849C457.363 197.721 457.364 196.594 457.366 195.466C457.367 194.252 457.367 193.038 457.367 191.823C457.366 189.718 457.368 187.613 457.369 185.507C457.372 182.463 457.373 179.419 457.374 176.376C457.374 171.437 457.377 166.499 457.38 161.561C457.383 156.763 457.386 151.965 457.387 147.167C457.387 146.871 457.387 146.576 457.387 146.271C457.388 144.789 457.388 143.306 457.389 141.823C457.392 129.515 457.399 117.207 457.406 104.899ZM479.022 122.325C479.022 129.34 479.022 136.355 479.022 143.583C482.948 143.605 482.948 143.605 486.953 143.627C487.77 143.633 488.588 143.639 489.43 143.646C497.624 143.785 497.624 143.785 504.645 139.986C506.824 137.554 506.941 134.711 506.901 131.564C506.774 129.72 506.281 128.01 505.169 126.507C504.824 126.392 504.479 126.277 504.123 126.158C503.951 125.641 503.951 125.641 503.774 125.113C497.433 120.604 486.319 122.295 479.022 122.325ZM479.022 161.008C479.022 169.289 479.022 177.569 479.022 186.1C481.783 186.129 484.544 186.158 487.389 186.187C488.678 186.206 488.678 186.206 489.993 186.226C495.353 186.272 501.175 186.253 505.518 182.615C508.256 179.674 509.066 177.23 509.069 173.228C509.074 172.991 509.078 172.755 509.082 172.512C509.09 169.887 508.464 167.986 506.912 165.887C506.619 165.465 506.619 165.465 506.32 165.034C505.369 163.981 504.369 163.436 503.099 162.86C502.894 162.757 502.689 162.654 502.477 162.549C497.755 160.354 492.168 160.926 487.105 160.965C484.438 160.979 481.77 160.993 479.022 161.008Z" fill="#486E9A"/>
<path d="M591.728 102.761C592.022 102.761 592.315 102.76 592.617 102.76C592.924 102.761 593.231 102.762 593.548 102.764C593.855 102.763 594.161 102.761 594.478 102.76C594.918 102.76 594.918 102.76 595.367 102.761C595.636 102.762 595.906 102.762 596.183 102.762C596.86 102.807 596.86 102.807 597.557 103.156C598.191 103.182 598.825 103.207 599.46 103.222C610.828 103.528 620.995 108.018 628.934 116.05C629.142 116.245 629.351 116.439 629.566 116.639C629.98 117.096 629.98 117.096 629.98 117.793C630.325 117.908 630.67 118.023 631.026 118.141C631.026 118.487 631.026 118.832 631.026 119.187C631.256 119.187 631.486 119.187 631.723 119.187C633.967 121.702 635.27 124.848 636.604 127.9C636.771 128.261 636.938 128.623 637.11 128.995C638.559 132.419 639.339 136.015 639.981 139.661C640.055 140.064 640.129 140.466 640.205 140.88C640.785 144.085 641.186 147.219 641.219 150.477C641.222 150.76 641.226 151.042 641.229 151.333C641.238 152.242 641.242 153.15 641.245 154.059C641.246 154.37 641.247 154.68 641.248 155C641.249 160.03 640.882 164.806 639.741 169.72C639.631 170.231 639.522 170.743 639.412 171.254C637.715 178.831 634.594 186.245 629.282 192.024C629.052 192.024 628.822 192.024 628.585 192.024C628.355 192.484 628.125 192.944 627.888 193.418C627.658 193.418 627.428 193.418 627.191 193.418C627.115 193.617 627.039 193.816 626.96 194.021C625.942 195.745 623.933 196.809 622.31 197.948C621.998 198.17 621.686 198.392 621.365 198.621C618.822 200.338 616.121 201.462 613.245 202.479C613.014 202.561 612.784 202.643 612.546 202.727C609.321 203.849 606.192 204.546 602.786 204.918C602.363 204.977 601.939 205.036 601.503 205.096C600.023 205.281 598.563 205.329 597.072 205.338C596.665 205.341 596.665 205.341 596.249 205.345C595.378 205.351 594.506 205.353 593.635 205.354C593.189 205.355 593.189 205.355 592.735 205.355C588.33 205.354 584.094 205.166 579.777 204.221C579.203 204.108 579.203 204.108 578.618 203.993C570.663 202.246 563.159 197.793 557.813 191.675C557.813 191.445 557.813 191.215 557.813 190.978C557.583 190.978 557.353 190.978 557.115 190.978C556.575 190.285 556.078 189.595 555.59 188.866C555.448 188.656 555.306 188.446 555.159 188.231C554.229 186.849 553.36 185.48 552.583 184.008C552.419 183.698 552.255 183.387 552.086 183.068C544.7 168.759 544.239 149.54 548.4 134.173C548.63 134.173 548.86 134.173 549.097 134.173C549.075 133.871 549.054 133.569 549.032 133.258C549.107 131.904 549.511 131.18 550.143 129.991C550.305 129.408 550.305 129.408 550.47 128.814C551.293 126.006 552.919 123.48 554.326 120.929C554.556 120.929 554.787 120.929 555.024 120.929C555.148 120.561 555.148 120.561 555.274 120.185C555.799 119.012 556.473 118.152 557.29 117.161C557.567 116.821 557.843 116.481 558.129 116.131C558.37 115.874 558.61 115.618 558.859 115.353C559.089 115.353 559.319 115.353 559.556 115.353C559.671 115.008 559.786 114.663 559.905 114.308C560.25 114.308 560.595 114.308 560.95 114.308C561.039 114.101 561.128 113.894 561.22 113.68C562.912 110.647 567.39 108.91 570.363 107.338C570.648 107.186 570.932 107.034 571.224 106.878C573.484 105.774 575.956 105.275 578.394 104.712C579.011 104.566 579.625 104.405 580.238 104.242C582.7 103.606 585.069 103.352 587.6 103.257C589.065 103.202 590.282 102.763 591.728 102.761ZM576.529 127.516C574.343 130.243 572.54 132.932 571.409 136.264C571.318 136.482 571.227 136.701 571.133 136.927C568.882 142.329 568.908 148.286 568.925 154.037C568.924 154.473 568.923 154.909 568.921 155.358C568.932 165.421 570.418 174.415 577.663 181.92C583.267 187.138 590.436 187.486 597.674 187.237C602.553 186.884 607.528 184.543 610.805 180.872C610.805 180.642 610.805 180.412 610.805 180.175C611.035 180.175 611.265 180.175 611.502 180.175C612.046 179.437 612.542 178.706 613.027 177.931C613.169 177.706 613.311 177.48 613.457 177.248C619.634 167.283 619.983 152.867 617.596 141.686C616.065 135.233 613.244 128.503 607.605 124.583C605.655 123.432 603.541 122.668 601.392 121.975C600.879 121.788 600.879 121.788 600.357 121.597C592.54 119.418 582.135 121.394 576.529 127.516Z" fill="#475F7B"/>
<path d="M945.884 113.002C946.188 113.23 946.188 113.23 946.499 113.463C946.991 113.844 947.464 114.249 947.932 114.657C947.932 114.887 947.932 115.117 947.932 115.354C948.141 115.448 948.35 115.541 948.564 115.637C949.326 116.051 949.82 116.433 950.373 117.097C950.373 117.327 950.373 117.557 950.373 117.794C950.718 117.909 951.063 118.024 951.419 118.142C951.833 119.035 951.833 119.035 952.116 119.885C952.346 119.885 952.576 119.885 952.813 119.885C952.813 120.23 952.813 120.575 952.813 120.93C953.043 120.93 953.274 120.93 953.511 120.93C962.822 133.402 963.883 152.002 961.736 166.869C960.133 177.198 956.45 187.799 948.63 195.161C948.4 195.161 948.17 195.161 947.932 195.161C947.817 195.506 947.702 195.851 947.584 196.207C946.903 196.745 946.234 197.231 945.514 197.709C945.308 197.848 945.103 197.987 944.891 198.13C935.62 204.339 926.28 206.359 915.27 206.378C915.028 206.379 914.785 206.379 914.535 206.38C909.866 206.379 905.198 206.344 900.649 205.18C900.336 205.102 900.023 205.024 899.7 204.943C894.14 203.513 888.773 201.019 884.133 197.601C884.133 197.371 884.133 197.141 884.133 196.904C883.844 196.785 883.844 196.785 883.55 196.664C882.499 196.072 881.758 195.319 880.908 194.464C880.597 194.155 880.286 193.846 879.965 193.527C879.252 192.722 879.252 192.722 879.252 192.025C878.907 191.91 878.562 191.795 878.206 191.676C878.206 191.446 878.206 191.216 878.206 190.979C877.976 190.979 877.746 190.979 877.509 190.979C876.605 189.761 875.849 188.445 875.068 187.145C874.912 186.888 874.755 186.63 874.594 186.364C871.658 181.313 869.49 175.441 868.51 169.677C868.471 169.449 868.432 169.221 868.392 168.986C867.719 164.536 867.689 160.004 867.701 155.514C867.703 154.712 867.701 153.911 867.699 153.109C867.697 148.582 867.787 144.082 868.749 139.64C868.812 139.343 868.874 139.046 868.938 138.74C869.624 135.531 870.549 132.619 871.931 129.643C872.089 129.262 872.247 128.881 872.41 128.488C874.3 124.113 876.688 120.241 879.949 116.748C880.179 116.748 880.409 116.748 880.646 116.748C880.725 116.549 880.805 116.349 880.886 116.144C881.469 115.138 882.174 114.589 883.087 113.873C883.396 113.627 883.705 113.381 884.024 113.127C884.83 112.566 884.83 112.566 885.527 112.566C885.527 112.336 885.527 112.106 885.527 111.869C885.872 111.869 886.218 111.869 886.573 111.869C886.573 111.639 886.573 111.409 886.573 111.172C903.269 100.534 929.988 101.02 945.884 113.002ZM901.913 125.112C901.913 125.342 901.913 125.572 901.913 125.809C901.546 125.928 901.546 125.928 901.172 126.049C898.879 127.095 897.302 128.924 895.986 131.037C895.986 131.267 895.986 131.497 895.986 131.734C895.756 131.734 895.526 131.734 895.289 131.734C888.771 143.758 888.673 158.481 892.09 171.513C894.109 177.749 897.568 182.666 903.293 185.92C904.666 186.604 906.009 187.109 907.491 187.494C907.989 187.674 907.989 187.674 908.497 187.857C914.209 189.479 921.408 188.593 926.641 185.928C927.495 185.44 928.3 184.92 929.106 184.357C929.455 184.124 929.455 184.124 929.81 183.886C930.96 183.097 932.046 182.295 932.941 181.221C932.941 180.876 932.941 180.531 932.941 180.175C933.286 180.06 933.632 179.945 933.987 179.827C934.53 179.079 934.53 179.079 935.033 178.084C935.219 177.739 935.219 177.739 935.409 177.386C936.214 175.902 936.214 175.902 936.428 174.251C936.658 174.251 936.888 174.251 937.125 174.251C939.157 168.323 939.746 162.67 939.721 156.436C939.718 155.328 939.728 154.221 939.739 153.113C939.754 148.498 939.277 144.228 938.171 139.749C938.086 139.389 938.001 139.029 937.913 138.659C936.669 133.655 933.256 128.366 928.899 125.597C920.412 120.694 910.733 121.573 901.913 125.112Z" fill="#487DBA"/>
<path d="M1322.71 105.596C1362.23 105.596 1362.23 105.596 1367.19 106.75C1367.54 106.828 1367.89 106.907 1368.25 106.987C1375.65 108.669 1383.25 111.89 1387.52 118.534C1387.77 118.98 1388.02 119.43 1388.26 119.884C1388.38 120.109 1388.5 120.334 1388.63 120.566C1389.94 123.041 1390.68 125.475 1391.04 128.248C1391.16 128.575 1391.28 128.901 1391.4 129.238C1392.98 134.272 1392.06 140.875 1390 145.673C1389.9 145.914 1389.79 146.155 1389.69 146.404C1386.38 153.939 1380.77 158.281 1373.61 162.053C1373.79 162.26 1373.96 162.467 1374.14 162.681C1378.74 168.289 1378.74 168.289 1379.19 170.766C1379.42 170.766 1379.65 170.766 1379.89 170.766C1380.36 171.408 1380.36 171.408 1380.91 172.334C1382.01 174.104 1383.15 175.827 1384.33 177.54C1384.5 177.779 1384.66 178.018 1384.83 178.264C1385.47 179.186 1386.1 180.096 1386.8 180.971C1387.21 181.569 1387.21 181.569 1387.21 182.615C1387.44 182.615 1387.67 182.615 1387.91 182.615C1388.42 183.346 1388.89 184.07 1389.35 184.836C1389.48 185.047 1389.61 185.257 1389.74 185.473C1390.7 187.051 1390.7 187.051 1390.7 187.842C1390.93 187.842 1391.16 187.842 1391.39 187.842C1391.91 188.558 1391.91 188.558 1392.5 189.541C1393.54 191.229 1394.65 192.838 1395.83 194.431C1396.27 195.161 1396.27 195.161 1396.27 196.206C1396.5 196.206 1396.73 196.206 1396.97 196.206C1398.02 197.734 1398.02 197.734 1398.02 198.646C1398.25 198.646 1398.48 198.646 1398.71 198.646C1399 199.163 1399 199.163 1399.28 199.691C1400.01 200.973 1400.87 202.103 1401.79 203.247C1402.2 203.873 1402.2 203.873 1402.2 204.919C1399.15 204.991 1396.09 205.047 1393.04 205.081C1391.62 205.098 1390.2 205.12 1388.78 205.155C1387.41 205.189 1386.04 205.208 1384.67 205.216C1384.15 205.222 1383.63 205.233 1383.11 205.25C1379.03 205.377 1379.03 205.377 1377.71 204.249C1376.86 203.022 1376.37 201.843 1376.05 200.388C1375.82 200.388 1375.59 200.388 1375.36 200.388C1374.95 199.773 1374.58 199.137 1374.22 198.493C1373.31 196.874 1372.35 195.313 1371.3 193.779C1370.76 192.977 1370.27 192.155 1369.78 191.327C1369.32 190.586 1368.86 189.846 1368.41 189.105C1367.67 187.911 1366.93 186.717 1366.25 185.49C1365.75 184.625 1365.24 183.81 1364.68 182.985C1362.7 180.053 1360.75 177.061 1359.08 173.946C1358.3 172.497 1357.37 171.177 1356.41 169.845C1355.83 169.016 1355.31 168.148 1354.79 167.28C1351.34 167.165 1347.88 167.05 1344.33 166.932C1344.33 179.468 1344.33 192.003 1344.33 204.919C1337.2 204.919 1330.06 204.919 1322.71 204.919C1322.71 172.142 1322.71 139.366 1322.71 105.596ZM1344.33 123.369C1344.33 131.995 1344.33 140.62 1344.33 149.507C1356.18 150.126 1356.18 150.126 1366.53 145.129C1366.93 144.708 1366.93 144.708 1367.34 144.279C1367.52 144.121 1367.71 143.963 1367.9 143.8C1370.3 140.976 1369.91 136.925 1369.78 133.476C1369.53 130.894 1368.22 128.71 1366.35 126.95C1360.17 122.341 1351.41 123.369 1344.33 123.369Z" fill="#46505B"/>
<path d="M787.306 105.549C787.621 105.55 787.936 105.55 788.261 105.551C788.591 105.55 788.921 105.55 789.261 105.549C790.36 105.548 791.46 105.549 792.56 105.55C793.326 105.55 794.092 105.549 794.858 105.549C796.471 105.548 798.084 105.549 799.697 105.551C801.748 105.553 803.799 105.552 805.849 105.55C807.436 105.548 809.023 105.549 810.61 105.55C811.365 105.55 812.119 105.55 812.874 105.549C816.419 105.546 819.958 105.56 823.499 105.752C823.873 105.772 823.873 105.772 824.255 105.793C826.325 105.921 828.316 106.236 830.334 106.707C830.672 106.785 831.011 106.862 831.36 106.942C836.574 108.188 840.9 110.248 845.085 113.612C845.085 113.842 845.085 114.072 845.085 114.309C845.294 114.402 845.502 114.496 845.717 114.592C846.479 115.005 846.972 115.388 847.525 116.051C847.525 116.281 847.525 116.511 847.525 116.748C847.756 116.748 847.986 116.748 848.223 116.748C850.571 119.934 852.349 123.666 853.104 127.552C853.21 128.099 853.21 128.099 853.319 128.657C854.443 135.587 855.075 145.854 851.012 151.947C850.861 152.321 850.71 152.694 850.554 153.08C849.886 154.701 848.872 156.09 847.874 157.523C847.644 157.868 847.414 158.213 847.177 158.568C846.947 158.568 846.717 158.568 846.48 158.568C846.365 158.913 846.249 159.258 846.131 159.614C845.268 160.502 844.299 161.268 843.342 162.053C843.133 162.231 842.924 162.408 842.709 162.591C837.601 166.704 830.939 168.73 824.516 169.372C824.401 169.487 824.286 169.602 824.167 169.72C818.415 169.72 812.662 169.72 806.735 169.72C806.735 181.336 806.735 192.952 806.735 204.919C799.487 204.919 792.239 204.919 784.772 204.919C784.764 192.316 784.757 179.714 784.754 167.111C784.753 165.624 784.753 164.138 784.752 162.652C784.752 162.356 784.752 162.06 784.752 161.755C784.751 156.957 784.748 152.16 784.745 147.362C784.741 142.443 784.739 137.524 784.739 132.605C784.738 129.567 784.737 126.529 784.734 123.491C784.732 121.411 784.732 119.331 784.732 117.251C784.732 116.048 784.732 114.846 784.73 113.644C784.728 112.344 784.729 111.044 784.73 109.744C784.729 109.36 784.728 108.976 784.727 108.58C784.727 108.235 784.728 107.889 784.729 107.533C784.729 107.233 784.728 106.932 784.728 106.623C784.826 105.097 786.058 105.553 787.306 105.549ZM806.735 123.37C806.735 132.915 806.735 142.461 806.735 152.295C818.536 152.629 818.536 152.629 828.699 147.416C828.699 147.186 828.699 146.956 828.699 146.719C828.929 146.719 829.159 146.719 829.397 146.719C832.437 143.582 832.211 139.226 832.176 135.139C831.96 131.402 830.419 128.665 827.653 126.158C826.761 125.561 825.863 125.151 824.864 124.764C824.65 124.664 824.437 124.565 824.216 124.463C819.289 122.316 811.298 123.37 806.735 123.37Z" fill="#4886CF"/>
<path d="M1245.32 105.596C1259.46 105.585 1259.46 105.585 1273.88 105.574C1276.86 105.571 1279.85 105.567 1282.92 105.564C1286.55 105.563 1286.55 105.563 1288.24 105.562C1289.43 105.562 1290.62 105.561 1291.81 105.559C1293.33 105.556 1294.84 105.556 1296.36 105.556C1296.91 105.556 1297.47 105.555 1298.03 105.554C1298.78 105.552 1299.53 105.553 1300.28 105.554C1300.7 105.553 1301.12 105.553 1301.56 105.553C1302.49 105.596 1302.49 105.596 1302.84 105.944C1302.84 111.694 1302.84 117.445 1302.84 123.369C1290.99 123.369 1279.14 123.369 1266.93 123.369C1266.93 130.385 1266.93 137.4 1266.93 144.628C1269.32 144.624 1271.71 144.62 1274.16 144.616C1275.67 144.614 1277.18 144.612 1278.69 144.611C1281.08 144.609 1283.48 144.606 1285.88 144.602C1287.81 144.598 1289.74 144.596 1291.67 144.595C1292.4 144.594 1293.14 144.593 1293.88 144.591C1294.91 144.588 1295.94 144.588 1296.97 144.588C1297.28 144.587 1297.59 144.586 1297.91 144.584C1300.01 144.588 1300.01 144.588 1300.4 144.976C1300.43 145.509 1300.45 146.044 1300.45 146.578C1300.45 146.919 1300.45 147.259 1300.45 147.61C1300.45 148.166 1300.45 148.166 1300.45 148.734C1300.45 149.111 1300.45 149.489 1300.45 149.878C1300.45 150.679 1300.45 151.479 1300.45 152.279C1300.44 153.509 1300.45 154.739 1300.45 155.969C1300.45 156.745 1300.45 157.52 1300.45 158.296C1300.45 158.666 1300.45 159.037 1300.45 159.419C1300.45 159.93 1300.45 159.93 1300.45 160.451C1300.45 160.753 1300.44 161.054 1300.44 161.365C1300.4 162.053 1300.4 162.053 1300.05 162.401C1299.02 162.435 1298 162.445 1296.97 162.441C1296.65 162.441 1296.33 162.441 1295.99 162.441C1294.92 162.441 1293.85 162.438 1292.77 162.435C1292.03 162.435 1291.29 162.434 1290.55 162.434C1288.59 162.433 1286.63 162.429 1284.67 162.425C1282.33 162.421 1279.98 162.42 1277.64 162.417C1274.07 162.414 1270.5 162.407 1266.93 162.401C1266.93 170.567 1266.93 178.732 1266.93 187.145C1278.78 187.145 1290.63 187.145 1302.84 187.145C1302.84 193.01 1302.84 198.876 1302.84 204.919C1283.86 204.919 1264.87 204.919 1245.32 204.919C1245.32 172.142 1245.32 139.365 1245.32 105.596Z" fill="#47596E"/>
<path d="M301.219 104.898C308.352 104.898 315.485 104.898 322.834 104.898C323.629 106.487 324.183 107.878 324.643 109.56C325.358 112.082 326.158 114.568 326.996 117.052C328.467 121.427 329.889 125.812 331.198 130.238C332.247 133.783 333.371 137.3 334.513 140.816C334.597 141.075 334.682 141.335 334.769 141.602C335.1 142.622 335.431 143.641 335.763 144.661C337.179 149.019 338.548 153.388 339.855 157.779C340.314 159.321 340.785 160.858 341.274 162.391C342.451 166.079 343.457 169.812 344.449 173.553C344.562 173.977 344.674 174.401 344.79 174.837C345.363 177.064 345.813 179.3 346.192 181.569C346.864 180.382 347.155 179.213 347.455 177.886C347.531 177.555 347.531 177.555 347.608 177.217C347.77 176.511 347.929 175.806 348.088 175.1C348.962 171.242 349.839 167.4 351.12 163.654C351.498 162.522 351.852 161.384 352.206 160.245C353.035 157.578 353.882 154.916 354.734 152.256C355.304 150.474 355.854 148.688 356.388 146.895C356.845 145.379 357.325 143.871 357.806 142.362C357.966 141.862 357.966 141.862 358.128 141.351C358.783 139.301 359.452 137.257 360.138 135.218C361.679 130.627 363.172 126.018 364.517 121.365C365.334 118.542 366.258 115.759 367.202 112.976C367.612 111.766 368.015 110.554 368.418 109.342C368.912 107.861 369.406 106.38 369.899 104.898C377.147 104.898 384.396 104.898 391.863 104.898C390.007 110.466 390.007 110.466 389.126 113.107C388.369 115.375 387.613 117.643 386.86 119.912C386.518 120.943 386.175 121.974 385.832 123.004C385.671 123.488 385.511 123.972 385.35 124.456C384.426 127.246 383.473 130.023 382.45 132.779C381.482 135.395 380.585 138.005 379.814 140.685C379.258 142.616 378.661 144.51 377.952 146.392C377.458 147.714 376.991 149.046 376.523 150.378C375.932 152.06 375.334 153.738 374.715 155.409C374.187 156.851 373.739 158.303 373.309 159.777C372.927 161.015 372.473 162.224 372.013 163.436C371.706 164.311 371.435 165.181 371.174 166.07C370.528 168.248 369.778 170.386 369.028 172.53C368.755 173.31 368.483 174.091 368.211 174.872C368.082 175.242 367.953 175.612 367.82 175.993C367.414 177.17 367.02 178.351 366.628 179.534C366.369 180.305 366.09 181.068 365.803 181.83C365.137 183.649 364.518 185.481 363.907 187.319C363.805 187.626 363.703 187.933 363.598 188.249C363.125 189.674 362.653 191.099 362.183 192.524C361.771 193.773 361.357 195.022 360.944 196.271C360.816 196.662 360.687 197.053 360.555 197.456C360.43 197.832 360.306 198.208 360.177 198.595C360.069 198.924 359.96 199.254 359.848 199.593C359.292 201.153 358.661 202.684 358.046 204.221C350.453 204.221 342.859 204.221 335.036 204.221C333.474 201.099 333.474 201.099 332.989 199.552C332.423 197.793 331.837 196.043 331.232 194.297C331.051 193.771 330.87 193.245 330.688 192.718C330.41 191.911 330.132 191.105 329.853 190.298C328.94 187.657 328.032 185.022 327.249 182.339C326.833 180.956 326.346 179.597 325.863 178.236C325.757 177.938 325.652 177.639 325.544 177.331C325.222 176.42 324.9 175.509 324.577 174.599C324.288 173.783 323.999 172.967 323.711 172.15C323.54 171.668 323.369 171.185 323.197 170.703C322.328 168.25 321.51 165.784 320.746 163.298C319.787 160.192 318.72 157.138 317.594 154.089C316.74 151.769 315.938 149.436 315.168 147.087C314.72 145.726 314.253 144.378 313.748 143.038C313.154 141.439 312.673 139.818 312.201 138.18C311.637 136.227 311.033 134.308 310.316 132.404C309.735 130.85 309.19 129.283 308.64 127.717C308.223 126.531 307.802 125.347 307.37 124.167C306.477 121.721 305.713 119.269 305.018 116.76C304.715 115.659 304.715 115.659 304.182 114.482C303.494 112.877 303.073 111.224 302.608 109.542C302.337 108.628 302.046 107.79 301.655 106.924C301.219 105.944 301.219 105.944 301.219 104.898Z" fill="#4981C4"/>
<path d="M685.481 103.375C685.81 103.372 686.138 103.368 686.477 103.364C687.531 103.354 688.586 103.352 689.64 103.352C690.18 103.352 690.18 103.352 690.731 103.352C696.134 103.362 701.142 103.621 706.331 105.247C706.804 105.39 706.804 105.39 707.286 105.536C709.431 106.191 711.546 106.916 713.652 107.687C713.935 107.79 714.218 107.893 714.51 108C716.088 108.58 717.662 109.172 719.23 109.778C719.23 111.233 718.896 112.262 718.381 113.59C718.29 113.828 718.199 114.067 718.105 114.313C717.169 116.736 716.142 119.121 715.103 121.502C714.332 123.269 713.616 125.043 712.955 126.854C711.26 126.633 709.734 126.14 708.14 125.548C700.251 122.704 690.208 119.154 682.082 122.866C681.004 123.503 680.282 124.152 679.486 125.112C679.256 125.112 679.026 125.112 678.789 125.112C678.688 125.421 678.588 125.73 678.484 126.049C678.092 127.203 678.092 127.203 677.727 128.032C676.96 130.14 677.133 132.421 677.983 134.478C678.644 135.802 679.449 136.665 680.532 137.658C680.532 137.888 680.532 138.118 680.532 138.355C680.91 138.484 680.91 138.484 681.295 138.616C682.275 139.052 682.275 139.052 683.027 139.69C684.249 140.622 685.519 141.196 686.917 141.818C688.719 142.641 690.467 143.448 692.094 144.591C692.864 145.055 693.674 145.386 694.502 145.732C696.633 146.65 698.687 147.756 700.753 148.81C701.038 148.953 701.323 149.097 701.616 149.244C704.178 150.594 706.52 152.324 708.888 153.983C709.426 154.356 709.97 154.72 710.515 155.083C710.515 155.313 710.515 155.543 710.515 155.78C710.975 156.01 711.435 156.24 711.909 156.477C711.909 156.707 711.909 156.937 711.909 157.174C712.116 157.267 712.323 157.359 712.536 157.454C715.897 159.278 717.73 163.926 718.93 167.375C719.181 168.271 719.401 169.155 719.579 170.069C719.674 170.515 719.674 170.515 719.771 170.971C720.602 177.273 720.191 183.931 717.139 189.585C716.976 189.886 716.814 190.187 716.647 190.497C715.532 192.453 714.271 194.323 712.606 195.858C712.376 195.858 712.146 195.858 711.909 195.858C711.909 196.088 711.909 196.318 711.909 196.555C710.351 197.949 710.351 197.949 709.469 197.949C709.469 198.179 709.469 198.409 709.469 198.646C708.195 199.35 706.915 200.045 705.634 200.737C705.358 200.89 705.083 201.044 704.799 201.202C700.947 203.262 696.696 204.355 692.386 204.919C692.025 204.978 691.664 205.037 691.293 205.097C689.834 205.281 688.421 205.324 686.953 205.326C686.67 205.327 686.386 205.328 686.094 205.329C685.495 205.331 684.896 205.332 684.297 205.332C683.403 205.333 682.508 205.339 681.614 205.346C676.363 205.364 671.194 205.042 666.108 203.655C665.812 203.582 665.516 203.509 665.211 203.434C661.678 202.499 658.536 201.072 655.082 199.691C655.082 193.021 655.082 186.351 655.082 179.478C658.594 180.648 658.594 180.648 659.806 181.162C663.608 182.743 667.416 184.061 671.379 185.178C672.107 185.386 672.83 185.605 673.553 185.829C677.223 186.945 680.599 187.168 684.411 187.189C684.702 187.19 684.993 187.192 685.293 187.194C689.3 187.183 692.839 186.817 695.959 183.996C698.224 181.473 698.561 179.395 698.462 176.065C698.321 174.075 697.612 172.873 696.221 171.463C695.975 171.203 695.73 170.944 695.477 170.677C693.198 168.456 690.632 167.037 687.854 165.538C687.548 165.351 687.243 165.164 686.929 164.972C686.166 164.525 685.459 164.222 684.629 163.926C682.357 163.046 680.25 161.87 678.11 160.718C677.032 160.138 675.946 159.582 674.845 159.047C671.176 157.217 667.799 155.16 664.844 152.295C664.844 152.065 664.844 151.835 664.844 151.598C664.635 151.505 664.427 151.411 664.212 151.315C663.45 150.901 662.956 150.519 662.403 149.856C662.403 149.626 662.403 149.396 662.403 149.159C662.173 149.159 661.943 149.159 661.706 149.159C656.595 142.795 655.479 135.019 656.2 127.11C656.847 121.82 658.743 116.844 662.403 112.914C662.633 112.914 662.864 112.914 663.101 112.914C663.216 112.569 663.331 112.224 663.449 111.869C663.679 111.869 663.909 111.869 664.146 111.869C664.262 111.524 664.377 111.179 664.495 110.823C664.725 110.823 664.955 110.823 665.192 110.823C665.192 110.593 665.192 110.363 665.192 110.126C670.605 105.618 678.533 103.42 685.481 103.375Z" fill="#47525F"/>
<path d="M1052.87 105.596C1067.83 105.596 1082.78 105.596 1098.19 105.596C1098.19 109.736 1098.19 113.876 1098.19 118.142C1095.99 119.189 1093.78 120.235 1091.57 121.278C1091.32 121.395 1091.08 121.512 1090.82 121.632C1090.19 121.929 1089.56 122.225 1088.93 122.52C1088.58 122.686 1088.23 122.851 1087.86 123.022C1087.04 123.369 1087.04 123.369 1086.34 123.369C1086.45 144.415 1086.57 165.461 1086.69 187.145C1088.87 188.18 1091.06 189.215 1093.31 190.282C1094.23 190.742 1095.15 191.202 1096.1 191.676C1096.79 191.906 1097.48 192.136 1098.19 192.373C1098.19 196.513 1098.19 200.653 1098.19 204.919C1083.24 204.919 1068.28 204.919 1052.87 204.919C1052.87 200.778 1052.87 196.638 1052.87 192.373C1058.94 189.544 1058.94 189.544 1061.15 188.583C1061.38 188.48 1061.62 188.378 1061.86 188.272C1062.81 187.859 1063.74 187.472 1064.72 187.145C1064.61 166.214 1064.49 145.283 1064.38 123.718C1061.5 122.338 1058.62 120.958 1055.66 119.536C1054.74 119.076 1053.82 118.616 1052.87 118.142C1052.87 114.002 1052.87 109.861 1052.87 105.596Z" fill="#486C98"/>
<path d="M395.699 104.898C410.656 104.898 425.612 104.898 441.021 104.898C441.021 108.924 441.021 112.949 441.021 117.096C439.792 118.018 439.03 118.409 437.622 118.904C434.844 119.981 432.182 121.34 429.517 122.672C429.517 143.603 429.517 164.534 429.517 186.099C431.865 187.296 431.865 187.296 434.289 188.321C436.589 189.187 438.794 190.288 441.021 191.327C441.021 195.582 441.021 199.837 441.021 204.221C426.065 204.221 411.109 204.221 395.699 204.221C395.699 200.081 395.699 195.941 395.699 191.675C396.884 190.787 397.71 190.331 399.055 189.802C400.718 189.13 402.318 188.394 403.91 187.567C404.987 187.034 406.099 186.573 407.204 186.099C407.204 165.168 407.204 144.237 407.204 122.672C402.471 120.125 402.471 120.125 397.63 118.132C396.745 117.793 396.745 117.793 395.699 117.096C395.699 113.071 395.699 109.046 395.699 104.898Z" fill="#4878AF"/>
<path d="M982.447 105.596C989.465 105.596 996.483 105.596 1003.71 105.596C1004.38 106.258 1004.11 107.233 1004.11 108.114C1004.11 108.587 1004.11 108.587 1004.1 109.069C1004.1 109.401 1004.11 109.733 1004.11 110.075C1004.11 111.196 1004.1 112.317 1004.1 113.438C1004.1 114.238 1004.1 115.038 1004.1 115.838C1004.1 118.017 1004.1 120.197 1004.1 122.376C1004.1 124.651 1004.1 126.926 1004.1 129.201C1004.09 133.022 1004.09 136.843 1004.09 140.663C1004.09 144.599 1004.08 148.535 1004.08 152.471C1004.08 152.716 1004.08 152.961 1004.08 153.214C1004.08 155.344 1004.08 157.475 1004.08 159.605C1004.08 168.785 1004.07 177.965 1004.06 187.145C1017.18 187.145 1030.29 187.145 1043.81 187.145C1043.81 193.01 1043.81 198.876 1043.81 204.919C1023.56 204.919 1003.31 204.919 982.447 204.919C982.447 172.142 982.447 139.366 982.447 105.596Z" fill="#4876AB"/>
</svg>
