<svg width="1653" height="298" viewBox="0 0 1653 298" fill="none" xmlns="http://www.w3.org/2000/svg">
<path d="M127.464 52.1533C127.856 52.1519 128.248 52.1506 128.652 52.1492C129.081 52.1495 129.51 52.1498 129.952 52.1501C130.637 52.1486 130.637 52.1486 131.336 52.147C132.604 52.1442 133.872 52.1436 135.14 52.1433C136.508 52.1427 137.876 52.14 139.243 52.1377C142.234 52.1329 145.225 52.1308 148.216 52.1293C150.084 52.1284 151.952 52.1269 153.821 52.1253C158.996 52.1211 164.17 52.1175 169.345 52.1163C169.842 52.1162 169.842 52.1162 170.349 52.1161C170.847 52.1159 170.847 52.1159 171.355 52.1158C172.027 52.1157 172.7 52.1155 173.373 52.1154C173.706 52.1153 174.04 52.1152 174.384 52.1151C179.787 52.1137 185.19 52.1077 190.593 52.0995C196.143 52.0913 201.694 52.0869 207.244 52.0865C210.359 52.0862 213.474 52.0842 216.589 52.0779C219.242 52.0725 221.896 52.0707 224.549 52.0736C225.901 52.075 227.254 52.0747 228.607 52.0698C229.847 52.0653 231.088 52.0658 232.329 52.07C232.985 52.071 233.642 52.0669 234.298 52.0625C240.789 52.0999 245.106 54.307 249.624 58.8233C253.376 62.8336 254.316 67.6738 254.287 73.005C254.288 73.477 254.29 73.9491 254.292 74.4212C254.296 75.7084 254.294 76.9956 254.291 78.2829C254.288 79.675 254.292 81.0671 254.295 82.4593C254.299 85.1825 254.298 87.9057 254.295 90.629C254.293 92.843 254.293 95.0571 254.294 97.2712C254.294 97.5868 254.294 97.9024 254.294 98.2276C254.295 98.8688 254.295 99.5101 254.295 100.151C254.298 106.159 254.295 112.166 254.289 118.173C254.285 123.323 254.285 128.472 254.29 133.622C254.296 139.609 254.298 145.595 254.295 151.581C254.294 152.22 254.294 152.859 254.294 153.498C254.294 153.812 254.294 154.126 254.293 154.45C254.292 156.66 254.294 158.871 254.296 161.081C254.299 163.776 254.299 166.471 254.293 169.167C254.29 170.541 254.289 171.915 254.293 173.289C254.296 174.548 254.294 175.808 254.288 177.068C254.287 177.735 254.29 178.403 254.294 179.07C254.256 184.588 252.433 189.342 248.576 193.342C243.342 197.765 238.233 198.738 231.564 198.672C230.975 198.67 230.387 198.668 229.799 198.667C228.266 198.663 226.732 198.653 225.198 198.642C223.351 198.629 221.503 198.624 219.655 198.618C216.861 198.608 214.066 198.588 211.272 198.57C211.272 190.749 211.272 182.929 211.272 174.872C219.356 174.763 219.356 174.763 221.9 174.736C222.568 174.725 223.236 174.714 223.903 174.701C224.248 174.699 224.593 174.697 224.948 174.695C227.352 174.658 227.352 174.658 229.401 173.478C230.138 172.372 230.186 172.108 230.187 170.844C230.189 170.517 230.191 170.189 230.193 169.852C230.192 169.491 230.19 169.131 230.189 168.759C230.19 168.377 230.192 167.994 230.193 167.6C230.197 166.312 230.195 165.024 230.194 163.735C230.195 162.815 230.197 161.894 230.199 160.973C230.204 158.727 230.204 156.481 230.204 154.235C230.203 152.41 230.204 150.585 230.205 148.76C230.205 148.37 230.205 148.37 230.206 147.973C230.206 147.446 230.207 146.919 230.207 146.391C230.211 141.444 230.21 136.497 230.208 131.55C230.206 127.022 230.21 122.495 230.217 117.968C230.223 113.321 230.226 108.674 230.225 104.028C230.224 101.418 230.225 98.8086 230.23 96.199C230.234 93.9773 230.235 91.7556 230.231 89.5338C230.228 88.4 230.229 87.2663 230.232 86.1326C230.236 84.9039 230.233 83.6754 230.229 82.4467C230.231 82.0877 230.234 81.7288 230.236 81.3589C230.239 78.9659 230.239 78.9659 229.052 76.9427C228.02 76.316 227.253 76.1583 226.054 76.157C225.731 76.155 225.409 76.1529 225.077 76.1508C224.724 76.1522 224.371 76.1535 224.008 76.1548C223.632 76.1535 223.256 76.1522 222.869 76.1508C221.605 76.1472 220.342 76.1486 219.078 76.15C218.174 76.1485 217.27 76.1467 216.366 76.1446C214.162 76.1401 211.959 76.1395 209.755 76.1403C207.964 76.1409 206.174 76.1403 204.383 76.1389C204.128 76.1386 203.873 76.1384 203.611 76.1382C203.093 76.1378 202.576 76.1374 202.058 76.137C197.204 76.1332 192.349 76.1339 187.495 76.136C183.052 76.1378 178.61 76.1339 174.168 76.1273C169.608 76.1205 165.048 76.1177 160.488 76.119C157.927 76.1196 155.366 76.1188 152.806 76.1138C150.398 76.1093 147.991 76.1101 145.583 76.1147C144.699 76.1155 143.814 76.1145 142.929 76.1117C141.724 76.1081 140.519 76.1108 139.313 76.1153C138.785 76.1114 138.785 76.1114 138.246 76.1075C135.878 76.1123 135.878 76.1123 133.876 77.2912C133.243 78.3292 133.091 79.1029 133.09 80.3105C133.087 80.8011 133.087 80.8011 133.083 81.3015C133.085 81.8388 133.085 81.8388 133.087 82.3869C133.086 82.7682 133.085 83.1496 133.083 83.5425C133.08 84.8249 133.081 86.1071 133.083 87.3895C133.081 88.307 133.079 89.2246 133.077 90.1421C133.073 92.3784 133.072 94.6146 133.073 96.8508C133.074 98.6682 133.073 100.486 133.071 102.303C133.071 102.562 133.071 102.82 133.071 103.086C133.07 103.612 133.07 104.137 133.07 104.662C133.066 109.588 133.066 114.515 133.069 119.441C133.07 123.95 133.066 128.458 133.06 132.966C133.053 137.594 133.05 142.221 133.052 146.849C133.052 149.448 133.051 152.046 133.046 154.645C133.042 156.857 133.042 159.069 133.046 161.282C133.048 162.41 133.048 163.539 133.044 164.668C133.041 165.891 133.043 167.114 133.048 168.338C133.044 168.874 133.044 168.874 133.04 169.421C133.04 171.808 133.04 171.808 134.224 173.826C135.197 174.484 135.975 174.612 137.136 174.62C137.438 174.624 137.739 174.628 138.049 174.632C138.54 174.633 138.54 174.633 139.041 174.634C139.388 174.638 139.735 174.641 140.093 174.645C141.24 174.656 142.387 174.662 143.534 174.667C144.329 174.674 145.124 174.681 145.92 174.688C148.013 174.706 150.106 174.72 152.199 174.733C154.71 174.749 157.222 174.77 159.733 174.791C163.549 174.822 167.364 174.846 171.179 174.872C171.179 182.692 171.179 190.512 171.179 198.57C159.895 198.612 159.895 198.612 155.149 198.621C151.878 198.627 148.607 198.634 145.337 198.649C142.954 198.659 140.572 198.666 138.189 198.668C136.929 198.669 135.669 198.673 134.409 198.68C132.998 198.689 131.587 198.689 130.176 198.688C129.764 198.692 129.352 198.696 128.927 198.7C122.792 198.677 118.32 196.596 114.003 192.297C113.803 192.104 113.602 191.911 113.395 191.713C109.773 187.923 109.017 182.898 109.032 177.905C109.031 177.436 109.029 176.966 109.028 176.497C109.024 175.212 109.025 173.927 109.026 172.642C109.027 171.254 109.024 169.866 109.021 168.478C109.017 165.761 109.016 163.044 109.017 160.327C109.018 158.117 109.017 155.908 109.016 153.698C109.016 153.384 109.015 153.069 109.015 152.745C109.015 152.105 109.014 151.466 109.014 150.827C109.01 144.833 109.011 138.839 109.013 132.844C109.015 127.366 109.011 121.887 109.004 116.408C108.997 110.778 108.995 105.148 108.996 99.5178C108.997 96.3587 108.996 93.1996 108.991 90.0405C108.987 87.3507 108.986 84.6609 108.99 81.971C108.992 80.5998 108.993 79.2286 108.989 77.8574C108.985 76.5997 108.986 75.3422 108.991 74.0845C108.992 73.4191 108.988 72.7536 108.984 72.0882C109.023 65.8255 111.117 61.4799 115.354 56.991C118.5 53.9496 123.1 52.1589 127.464 52.1533Z" fill="#485B7E"/>
<path d="M80.5065 103.327C81.1029 103.329 81.6992 103.33 82.2956 103.331C83.8529 103.335 85.41 103.345 86.9672 103.357C88.8422 103.37 90.7173 103.375 92.5924 103.381C95.4298 103.391 98.267 103.411 101.104 103.429C101.104 111.249 101.104 119.07 101.104 127.127C92.8462 127.192 92.8462 127.192 90.2468 127.199C89.5648 127.209 88.8829 127.219 88.2009 127.229C87.8485 127.228 87.4961 127.226 87.133 127.225C85.0472 127.262 85.0472 127.262 83.2808 128.319C82.4317 129.486 82.2345 130.037 82.2305 131.454C82.2278 131.942 82.2278 131.942 82.2251 132.44C82.2248 132.98 82.2248 132.98 82.2246 133.531C82.2231 133.911 82.2215 134.292 82.2199 134.684C82.2153 135.967 82.2131 137.251 82.211 138.535C82.2082 139.452 82.2054 140.368 82.2024 141.285C82.1938 144.043 82.1887 146.801 82.1842 149.559C82.1829 150.337 82.1815 151.116 82.1801 151.895C82.1713 156.729 82.1636 161.563 82.1593 166.397C82.1583 167.517 82.1572 168.637 82.1562 169.757C82.1559 170.035 82.1557 170.314 82.1554 170.6C82.151 175.111 82.1394 179.621 82.1249 184.131C82.1101 188.76 82.1019 193.389 82.1 198.018C82.0989 200.617 82.0947 203.217 82.0833 205.817C82.0735 208.031 82.0697 210.244 82.0736 212.458C82.0754 213.588 82.0734 214.717 82.0657 215.847C82.0579 217.072 82.0607 218.296 82.0663 219.521C82.0614 219.878 82.0566 220.235 82.0516 220.602C82.0692 222.174 82.1002 223.311 83.0977 224.574C84.2813 225.638 85.0824 225.796 86.6167 225.799C86.9356 225.8 87.2546 225.801 87.5832 225.803C87.9342 225.803 88.2851 225.802 88.6467 225.802C89.0191 225.803 89.3915 225.804 89.7752 225.805C91.0294 225.808 92.2836 225.809 93.5377 225.809C94.4344 225.811 95.3311 225.813 96.2277 225.814C98.6682 225.819 101.109 225.821 103.549 225.823C105.073 225.824 106.596 225.825 108.12 225.827C112.338 225.831 116.555 225.835 120.773 225.836C121.043 225.836 121.313 225.836 121.591 225.836C121.862 225.836 122.133 225.836 122.412 225.836C122.96 225.836 123.508 225.837 124.057 225.837C124.329 225.837 124.601 225.837 124.881 225.837C129.289 225.838 133.697 225.844 138.106 225.853C142.631 225.861 147.156 225.865 151.681 225.866C154.222 225.866 156.763 225.868 159.304 225.874C161.693 225.88 164.083 225.881 166.473 225.878C167.351 225.877 168.228 225.879 169.106 225.882C170.303 225.887 171.5 225.885 172.697 225.881C173.22 225.885 173.22 225.885 173.753 225.89C175.591 225.876 176.928 225.771 178.501 224.707C179.462 223.266 179.59 222.001 179.592 220.297C179.593 219.979 179.594 219.662 179.595 219.334C179.594 218.989 179.594 218.643 179.593 218.286C179.594 217.917 179.595 217.547 179.596 217.166C179.598 215.925 179.598 214.684 179.597 213.443C179.598 212.554 179.6 211.665 179.601 210.776C179.604 208.61 179.605 206.445 179.605 204.279C179.605 202.519 179.606 200.759 179.607 198.999C179.61 194.007 179.612 189.016 179.611 184.024C179.611 183.755 179.611 183.486 179.611 183.209C179.611 182.94 179.611 182.67 179.611 182.393C179.611 178.027 179.615 173.661 179.619 169.296C179.624 164.812 179.627 160.329 179.627 155.845C179.626 153.328 179.627 150.811 179.631 148.294C179.635 145.928 179.635 143.561 179.632 141.194C179.632 140.325 179.632 139.456 179.635 138.587C179.637 137.402 179.636 136.216 179.633 135.031C179.636 134.514 179.636 134.514 179.638 133.987C179.627 131.802 179.609 129.78 178.151 128.032C176.645 127.23 175.327 127.276 173.644 127.285C173.297 127.282 172.95 127.278 172.592 127.274C171.447 127.264 170.302 127.264 169.157 127.263C168.362 127.258 167.568 127.252 166.773 127.246C164.683 127.23 162.592 127.223 160.502 127.218C157.993 127.21 155.484 127.192 152.976 127.175C149.166 127.151 145.356 127.14 141.546 127.127C141.546 119.307 141.546 111.486 141.546 103.429C152.83 103.387 152.83 103.387 157.576 103.378C160.847 103.372 164.118 103.364 167.388 103.35C169.771 103.34 172.154 103.333 174.536 103.331C175.796 103.329 177.056 103.326 178.316 103.318C179.727 103.31 181.138 103.31 182.549 103.31C182.961 103.306 183.373 103.303 183.798 103.299C187.528 103.313 190.955 103.921 194.124 105.956C194.457 106.163 194.457 106.163 194.797 106.376C199.092 109.127 201.619 113.143 203.098 118.002C203.287 118.924 203.299 119.781 203.302 120.722C203.304 121.325 203.304 121.325 203.307 121.939C203.307 122.381 203.307 122.822 203.307 123.277C203.309 123.751 203.31 124.224 203.312 124.698C203.316 126 203.318 127.303 203.32 128.606C203.322 130.01 203.326 131.415 203.33 132.819C203.338 136.213 203.343 139.606 203.348 142.999C203.349 143.958 203.351 144.917 203.352 145.875C203.361 151.832 203.368 157.789 203.373 163.746C203.374 165.125 203.375 166.505 203.376 167.885C203.376 168.228 203.376 168.571 203.377 168.924C203.381 174.474 203.393 180.025 203.407 185.576C203.422 191.277 203.43 196.979 203.432 202.681C203.433 205.881 203.437 209.081 203.449 212.281C203.459 215.007 203.462 217.733 203.458 220.46C203.457 221.849 203.458 223.239 203.466 224.629C203.474 225.904 203.474 227.179 203.467 228.455C203.466 229.128 203.473 229.801 203.48 230.475C203.432 235.834 201.312 240.522 197.719 244.441C196.195 245.907 194.657 246.951 192.773 247.905C192.551 248.017 192.33 248.129 192.101 248.245C188.824 249.784 185.468 249.902 181.9 249.893C181.218 249.895 181.218 249.895 180.522 249.898C179.268 249.902 178.014 249.902 176.76 249.901C175.404 249.901 174.048 249.905 172.692 249.908C170.039 249.914 167.386 249.916 164.732 249.916C162.574 249.916 160.416 249.918 158.258 249.92C152.132 249.926 146.005 249.929 139.879 249.929C139.549 249.929 139.219 249.929 138.879 249.929C138.549 249.929 138.218 249.929 137.878 249.929C132.528 249.928 127.177 249.935 121.827 249.945C116.325 249.955 110.823 249.96 105.321 249.959C102.236 249.959 99.1499 249.961 96.0642 249.968C93.4367 249.975 90.8092 249.976 88.1817 249.971C86.8429 249.969 85.5043 249.969 84.1656 249.975C75.995 250.01 69.4983 249.767 63.3595 243.812C60.0286 240.378 58.1829 235.849 58.1768 231.057C58.1754 230.661 58.1741 230.265 58.1727 229.857C58.173 229.425 58.1733 228.993 58.1736 228.548C58.1727 228.082 58.1717 227.616 58.1705 227.15C58.1677 225.872 58.167 224.593 58.1668 223.315C58.1661 221.935 58.1635 220.555 58.1611 219.175C58.1564 216.159 58.1543 213.142 58.1528 210.126C58.1518 208.242 58.1503 206.357 58.1488 204.473C58.1445 199.253 58.1409 194.033 58.1397 188.813C58.1397 188.48 58.1396 188.146 58.1395 187.801C58.1394 187.467 58.1394 187.132 58.1393 186.787C58.1391 186.109 58.139 185.431 58.1388 184.752C58.1387 184.416 58.1387 184.079 58.1386 183.733C58.1372 178.283 58.1311 172.834 58.123 167.384C58.1147 161.785 58.1104 156.187 58.11 150.588C58.1097 147.446 58.1077 144.305 58.1013 141.163C58.096 138.487 58.0942 135.811 58.0971 133.135C58.0984 131.771 58.0981 130.407 58.0932 129.043C58.0887 127.791 58.0892 126.54 58.0934 125.289C58.0944 124.627 58.0903 123.965 58.0859 123.303C58.1153 118.166 59.4875 113.131 63.0871 109.31C68.3618 104.48 73.5332 103.259 80.5065 103.327Z" fill="#486BAA"/>
<path d="M1254 88C1265.23 88 1276.45 88 1288.02 88C1289.12 90.4779 1290 92.6592 1290.65 95.2355C1291.3 97.6592 1291.99 100.047 1292.81 102.42C1293.39 104.145 1293.93 105.84 1294.33 107.615C1294.83 109.483 1295.5 111.305 1296.12 113.132C1296.54 114.439 1296.88 115.74 1297.2 117.074C1297.69 118.869 1298.35 120.607 1298.98 122.356C1300.46 126.544 1301.73 130.765 1302.9 135.047C1303.63 137.647 1304.43 140.226 1305.23 142.805C1305.6 144.005 1305.97 145.205 1306.33 146.409C1307.05 148.863 1307.84 151.287 1308.66 153.71C1309.73 156.891 1310.72 160.082 1311.65 163.306C1312.32 165.631 1313.03 167.945 1313.73 170.259C1313.92 170.879 1313.92 170.879 1314.11 171.511C1314.78 173.688 1314.78 173.688 1315.48 175.853C1317.19 172.055 1318.43 168.173 1319.65 164.197C1320.22 162.375 1320.79 160.556 1321.37 158.739C1321.54 158.18 1321.54 158.18 1321.73 157.609C1323.33 152.564 1325.02 147.546 1326.71 142.526C1327.6 139.856 1328.47 137.18 1329.31 134.492C1331.38 127.861 1333.53 121.239 1335.94 114.721C1336.3 113.666 1336.63 112.614 1336.95 111.544C1337.64 109.209 1338.41 106.907 1339.19 104.601C1340.36 101.133 1341.46 97.66 1342.44 94.137C1343.07 92.065 1343.83 90.0356 1344.57 88C1355.93 88 1367.3 88 1379 88C1379 126.61 1379 165.22 1379 205C1371.16 205 1363.31 205 1355.23 205C1355.22 195.883 1355.21 186.765 1355.21 177.648C1355.21 173.414 1355.2 169.181 1355.2 164.948C1355.19 161.258 1355.19 157.569 1355.19 153.879C1355.19 151.925 1355.19 149.972 1355.19 148.018C1355.18 146.179 1355.18 144.34 1355.18 142.502C1355.18 141.827 1355.18 141.151 1355.18 140.476C1355.18 139.555 1355.18 138.633 1355.18 137.712C1355.18 136.938 1355.18 136.938 1355.18 136.149C1355.22 134.957 1355.37 133.906 1355.64 132.747C1355.68 132.156 1355.71 131.562 1355.72 130.969C1355.73 130.632 1355.74 130.296 1355.75 129.949C1355.76 129.591 1355.76 129.233 1355.77 128.865C1355.78 128.309 1355.78 128.309 1355.79 127.742C1355.82 126.562 1355.85 125.383 1355.87 124.203C1355.89 123.402 1355.91 122.6 1355.92 121.799C1355.97 119.838 1356.01 117.877 1356.05 115.916C1355.34 117.784 1354.65 119.65 1354.03 121.546C1353.89 121.963 1353.75 122.381 1353.61 122.811C1353.47 123.236 1353.33 123.662 1353.18 124.101C1352.97 124.737 1352.97 124.737 1352.75 125.386C1352.48 126.221 1352.2 127.057 1351.93 127.892C1351.69 128.611 1351.45 129.33 1351.21 130.048C1350.47 132.233 1349.81 134.434 1349.16 136.647C1347.88 140.96 1346.4 145.182 1344.86 149.403C1343.86 152.14 1342.98 154.89 1342.18 157.69C1340.94 161.978 1339.48 166.197 1338.05 170.426C1337.61 171.738 1337.17 173.052 1336.74 174.366C1336.01 176.571 1335.23 178.754 1334.43 180.936C1333.91 182.431 1333.46 183.934 1333.01 185.449C1332.48 187.226 1331.92 188.993 1331.36 190.76C1331.23 191.144 1331.11 191.528 1330.99 191.924C1330.09 194.749 1329.17 197.567 1328.23 200.382C1328.11 200.751 1327.99 201.12 1327.86 201.5C1327.75 201.84 1327.63 202.18 1327.52 202.53C1327.42 202.83 1327.32 203.129 1327.22 203.438C1326.95 204.179 1326.95 204.179 1326.54 205C1318.83 205 1311.12 205 1303.18 205C1302.08 202.24 1301.13 199.633 1300.36 196.789C1299.59 193.999 1298.76 191.241 1297.83 188.502C1296.9 185.78 1296.1 183.043 1295.35 180.265C1294.76 178.082 1294.08 175.941 1293.34 173.8C1292.4 171.036 1291.58 168.258 1290.82 165.44C1289.86 161.921 1288.78 158.443 1287.63 154.983C1285.78 149.427 1284.07 143.833 1282.45 138.206C1281.74 135.726 1280.98 133.275 1280.14 130.834C1279.83 129.913 1279.58 128.995 1279.36 128.052C1279.05 126.804 1278.66 125.72 1278.18 124.537C1277.98 123.858 1277.79 123.179 1277.6 122.499C1277.17 120.993 1276.73 119.494 1276.28 117.994C1276.14 117.514 1276.14 117.514 1276 117.025C1275.77 116.245 1275.54 115.464 1275.31 114.684C1275.33 115.002 1275.36 115.32 1275.38 115.648C1275.84 122.305 1276.21 128.962 1276.36 135.634C1276.37 135.992 1276.38 136.351 1276.39 136.72C1276.67 148.972 1276.59 161.231 1276.57 173.485C1276.57 176.931 1276.56 180.377 1276.56 183.824C1276.56 190.883 1276.55 197.941 1276.54 205C1269.1 205 1261.66 205 1254 205C1254 166.39 1254 127.78 1254 88Z" fill="#476384"/>
<path d="M484.053 87.1343C490.468 87.1054 496.883 87.0838 503.298 87.0706C506.277 87.0643 509.257 87.0558 512.236 87.0416C514.838 87.0292 517.439 87.0214 520.04 87.0187C521.414 87.0171 522.787 87.0128 524.161 87.0044C535.654 86.9369 548.386 87.5689 558.129 94.5066C558.129 94.777 558.129 95.0473 558.129 95.3258C558.669 95.461 559.209 95.5961 559.766 95.7354C559.766 96.0057 559.766 96.276 559.766 96.5545C560.576 96.96 560.576 96.96 561.403 97.3737C561.403 97.644 561.403 97.9143 561.403 98.1928C561.631 98.2688 561.859 98.3449 562.094 98.4232C565.22 100.368 566.083 104.311 567.133 107.613C567.284 108.024 567.434 108.435 567.59 108.858C569.588 116.05 568.326 125.483 564.779 131.957C561.378 137.05 557.219 140.639 551.172 142.017C551.641 142.176 552.11 142.334 552.593 142.497C553.219 142.713 553.845 142.928 554.471 143.144C554.933 143.299 554.933 143.299 555.404 143.457C557.418 144.155 559.175 145.001 560.994 146.113C560.994 146.383 560.994 146.654 560.994 146.932C561.231 146.971 561.469 147.01 561.713 147.051C564.256 147.857 565.982 150.576 567.235 152.794C568.359 155.001 569.272 157.261 569.998 159.629C570.144 160.084 570.29 160.539 570.44 161.008C571.09 163.692 570.995 166.483 570.995 169.228C570.996 169.666 570.996 169.666 570.997 170.113C570.992 174.679 570.584 178.747 568.77 182.975C568.633 183.308 568.496 183.642 568.356 183.986C567.993 184.781 567.59 185.507 567.133 186.251C566.976 186.528 566.819 186.805 566.658 187.09C565.399 189.162 563.862 190.879 562.17 192.6C561.96 192.816 561.749 193.033 561.532 193.256C559.65 195.116 559.65 195.116 558.129 195.262C558.129 195.532 558.129 195.803 558.129 196.081C557.166 196.603 556.203 197.123 555.239 197.643C554.97 197.789 554.701 197.935 554.424 198.085C551.445 199.686 548.424 200.878 545.186 201.841C544.861 201.946 544.536 202.05 544.201 202.158C536.69 204.38 528.47 203.981 520.726 203.957C519.675 203.957 518.624 203.957 517.573 203.957C515.391 203.956 513.209 203.953 511.027 203.947C508.505 203.941 505.983 203.939 503.46 203.939C501.02 203.939 498.579 203.937 496.138 203.934C495.104 203.932 494.069 203.932 493.035 203.931C491.6 203.93 490.165 203.927 488.73 203.923C488.301 203.923 487.872 203.923 487.43 203.923C487.043 203.921 486.655 203.92 486.256 203.918C485.917 203.917 485.579 203.916 485.23 203.916C484.462 203.863 484.462 203.863 484.053 203.453C484.013 202.832 484.002 202.209 484.002 201.586C484.002 201.18 484.001 200.774 484 200.356C484.001 199.905 484.002 199.453 484.004 198.988C484.003 198.513 484.003 198.038 484.003 197.548C484.002 196.223 484.003 194.897 484.005 193.572C484.007 192.145 484.006 190.718 484.006 189.291C484.006 186.817 484.007 184.343 484.01 181.868C484.013 178.291 484.014 174.714 484.014 171.136C484.015 165.333 484.018 159.529 484.022 153.726C484.026 148.087 484.029 142.448 484.03 136.809C484.03 136.461 484.031 136.114 484.031 135.756C484.031 134.014 484.032 132.271 484.032 130.529C484.036 116.064 484.044 101.599 484.053 87.1343ZM509.427 107.613C509.427 115.858 509.427 124.102 509.427 132.597C514.036 132.622 514.036 132.622 518.738 132.648C519.697 132.656 520.657 132.663 521.645 132.671C531.265 132.835 531.265 132.835 539.506 128.37C542.064 125.511 542.201 122.17 542.155 118.472C542.005 116.304 541.427 114.294 540.121 112.528C539.716 112.393 539.311 112.258 538.894 112.118C538.691 111.51 538.691 111.51 538.484 110.89C531.04 105.591 517.994 107.578 509.427 107.613ZM509.427 153.076C509.427 162.807 509.427 172.539 509.427 182.565C512.668 182.599 515.91 182.633 519.249 182.668C520.762 182.69 520.762 182.69 522.306 182.713C528.598 182.767 535.433 182.744 540.531 178.469C543.745 175.012 544.696 172.14 544.7 167.436C544.705 167.159 544.71 166.882 544.715 166.596C544.724 163.511 543.99 161.276 542.168 158.81C541.824 158.313 541.824 158.313 541.472 157.807C540.357 156.569 539.182 155.929 537.692 155.252C537.451 155.131 537.21 155.01 536.962 154.886C531.419 152.307 524.859 152.979 518.917 153.025C515.785 153.041 512.653 153.058 509.427 153.076Z" fill="#486E9A"/>
<path d="M641.91 85.0016C642.255 85.0011 642.599 85.0005 642.953 85C643.314 85.0016 643.674 85.0032 644.045 85.0048C644.405 85.0032 644.765 85.0016 645.136 85C645.652 85.0008 645.652 85.0008 646.179 85.0016C646.495 85.0021 646.811 85.0025 647.137 85.003C647.93 85.0557 647.93 85.0557 648.748 85.4634C649.492 85.4944 650.235 85.5232 650.98 85.5401C664.316 85.8982 676.242 91.1505 685.555 100.545C685.8 100.772 686.044 100.999 686.296 101.233C686.782 101.768 686.782 101.768 686.782 102.583C687.187 102.718 687.592 102.852 688.009 102.991C688.009 103.395 688.009 103.798 688.009 104.214C688.279 104.214 688.549 104.214 688.827 104.214C691.459 107.156 692.988 110.835 694.552 114.404C694.748 114.827 694.945 115.25 695.147 115.686C696.846 119.691 697.761 123.897 698.514 128.162C698.601 128.632 698.688 129.102 698.777 129.587C699.457 133.336 699.928 137.001 699.966 140.812C699.97 141.143 699.974 141.473 699.978 141.814C699.989 142.876 699.994 143.939 699.997 145.002C699.998 145.365 699.999 145.728 700 146.102C700.002 151.986 699.571 157.572 698.233 163.319C698.104 163.917 697.975 164.515 697.846 165.114C695.855 173.976 692.194 182.648 685.964 189.407C685.694 189.407 685.424 189.407 685.146 189.407C684.876 189.945 684.606 190.483 684.328 191.037C684.058 191.037 683.788 191.037 683.51 191.037C683.421 191.27 683.332 191.503 683.24 191.743C682.046 193.759 679.689 195.004 677.785 196.336C677.419 196.596 677.053 196.856 676.676 197.123C673.693 199.132 670.525 200.447 667.151 201.635C666.881 201.731 666.61 201.827 666.331 201.926C662.547 203.239 658.877 204.053 654.882 204.489C654.386 204.557 653.889 204.626 653.377 204.697C651.641 204.913 649.927 204.969 648.179 204.979C647.701 204.983 647.701 204.983 647.214 204.988C646.192 204.995 645.169 204.997 644.147 204.998C643.624 204.999 643.624 204.999 643.092 205C637.924 204.998 632.955 204.778 627.89 203.674C627.217 203.541 627.217 203.541 626.531 203.406C617.199 201.363 608.397 196.154 602.125 188.999C602.125 188.73 602.125 188.461 602.125 188.184C601.855 188.184 601.585 188.184 601.307 188.184C600.673 187.372 600.091 186.566 599.518 185.713C599.351 185.468 599.184 185.223 599.013 184.97C597.922 183.355 596.901 181.753 595.991 180.032C595.798 179.668 595.606 179.305 595.408 178.931C586.743 162.195 586.202 139.716 591.083 121.742C591.353 121.742 591.623 121.742 591.901 121.742C591.876 121.389 591.85 121.035 591.824 120.672C591.913 119.088 592.387 118.241 593.128 116.85C593.318 116.169 593.318 116.169 593.511 115.474C594.477 112.19 596.385 109.235 598.035 106.252C598.305 106.252 598.575 106.252 598.853 106.252C598.999 105.821 598.999 105.821 599.147 105.381C599.763 104.009 600.553 103.003 601.512 101.845C601.836 101.447 602.161 101.049 602.496 100.639C602.778 100.339 603.061 100.039 603.352 99.7301C603.622 99.7301 603.892 99.7301 604.17 99.7301C604.305 99.3266 604.44 98.923 604.579 98.5072C604.984 98.5072 605.389 98.5072 605.806 98.5072C605.91 98.265 606.015 98.0228 606.122 97.7732C608.107 94.2255 613.36 92.1941 616.848 90.3548C617.181 90.1772 617.514 89.9996 617.858 89.8166C620.509 88.5257 623.408 87.9418 626.268 87.2837C626.992 87.1127 627.712 86.9244 628.432 86.734C631.32 85.99 634.098 85.693 637.068 85.5817C638.786 85.517 640.214 85.0041 641.91 85.0016ZM624.08 113.955C621.516 117.146 619.401 120.29 618.075 124.187C617.968 124.443 617.861 124.699 617.751 124.963C615.11 131.281 615.14 138.249 615.161 144.976C615.16 145.486 615.158 145.995 615.156 146.521C615.169 158.291 616.912 168.81 625.411 177.589C631.985 183.692 640.395 184.099 648.885 183.808C654.608 183.395 660.445 180.657 664.289 176.363C664.289 176.094 664.289 175.825 664.289 175.548C664.558 175.548 664.828 175.548 665.107 175.548C665.744 174.685 666.326 173.83 666.896 172.924C667.062 172.66 667.229 172.396 667.4 172.124C674.645 160.469 675.055 143.607 672.255 130.529C670.459 122.983 667.15 115.11 660.534 110.526C658.247 109.179 655.768 108.285 653.246 107.475C652.645 107.256 652.645 107.256 652.032 107.032C642.862 104.484 630.657 106.795 624.08 113.955Z" fill="#475F7B"/>
<path d="M1056.38 96.996C1056.73 97.2626 1056.73 97.2626 1057.09 97.5345C1057.67 97.9789 1058.22 98.4515 1058.77 98.9284C1058.77 99.1969 1058.77 99.4654 1058.77 99.7421C1059.01 99.8512 1059.26 99.9602 1059.51 100.073C1060.4 100.555 1060.98 101.002 1061.62 101.776C1061.62 102.045 1061.62 102.313 1061.62 102.59C1062.03 102.724 1062.43 102.858 1062.84 102.997C1063.33 104.039 1063.33 104.039 1063.66 105.031C1063.93 105.031 1064.2 105.031 1064.47 105.031C1064.47 105.433 1064.47 105.836 1064.47 106.251C1064.74 106.251 1065.01 106.251 1065.29 106.251C1076.17 120.81 1077.41 142.523 1074.9 159.877C1073.03 171.935 1068.72 184.31 1059.59 192.904C1059.32 192.904 1059.05 192.904 1058.77 192.904C1058.64 193.307 1058.5 193.709 1058.36 194.124C1057.57 194.753 1056.79 195.32 1055.94 195.879C1055.7 196.041 1055.46 196.203 1055.22 196.37C1044.38 203.617 1033.46 205.976 1020.6 205.998C1020.31 205.999 1020.03 205.999 1019.74 206C1014.28 205.999 1008.83 205.958 1003.51 204.6C1003.14 204.509 1002.78 204.417 1002.4 204.323C995.902 202.653 989.63 199.742 984.206 195.752C984.206 195.483 984.206 195.215 984.206 194.938C983.869 194.8 983.869 194.8 983.525 194.658C982.296 193.967 981.43 193.088 980.437 192.09C980.074 191.729 979.71 191.369 979.336 190.997C978.502 190.056 978.502 190.056 978.502 189.243C978.098 189.108 977.695 188.974 977.279 188.836C977.279 188.567 977.279 188.299 977.279 188.022C977.01 188.022 976.742 188.022 976.465 188.022C975.408 186.601 974.524 185.064 973.612 183.547C973.43 183.246 973.247 182.945 973.058 182.635C969.626 176.738 967.093 169.884 965.947 163.155C965.902 162.889 965.856 162.623 965.809 162.348C965.023 157.154 964.988 151.864 965.003 146.622C965.005 145.686 965.003 144.751 965 143.815C964.997 138.53 965.102 133.278 966.227 128.092C966.3 127.746 966.373 127.399 966.448 127.041C967.25 123.296 968.33 119.896 969.945 116.422C970.13 115.977 970.315 115.532 970.505 115.074C972.714 109.967 975.505 105.447 979.317 101.369C979.586 101.369 979.855 101.369 980.132 101.369C980.224 101.137 980.316 100.904 980.412 100.664C981.093 99.4893 981.917 98.8492 982.984 98.0131C983.345 97.7257 983.707 97.4383 984.079 97.1422C985.021 96.4875 985.021 96.4875 985.836 96.4875C985.836 96.219 985.836 95.9505 985.836 95.6739C986.239 95.6739 986.643 95.6739 987.058 95.6739C987.058 95.4054 987.058 95.1369 987.058 94.8602C1006.57 82.4415 1037.8 83.0089 1056.38 96.996ZM1004.99 111.133C1004.99 111.402 1004.99 111.67 1004.99 111.947C1004.56 112.085 1004.56 112.085 1004.12 112.226C1001.44 113.448 999.597 115.583 998.06 118.049C998.06 118.317 998.06 118.586 998.06 118.863C997.791 118.863 997.522 118.863 997.245 118.863C989.627 132.899 989.512 150.086 993.506 165.299C995.865 172.579 999.908 178.318 1006.6 182.117C1008.2 182.915 1009.77 183.505 1011.51 183.954C1012.09 184.164 1012.09 184.164 1012.68 184.378C1019.36 186.271 1027.77 185.237 1033.89 182.126C1034.88 181.556 1035.83 180.95 1036.77 180.292C1037.18 180.02 1037.18 180.02 1037.59 179.743C1038.93 178.822 1040.2 177.885 1041.25 176.631C1041.25 176.228 1041.25 175.826 1041.25 175.411C1041.65 175.276 1042.06 175.142 1042.47 175.004C1043.11 174.13 1043.11 174.13 1043.69 172.97C1043.91 172.566 1043.91 172.566 1044.13 172.154C1045.07 170.422 1045.07 170.422 1045.32 168.495C1045.59 168.495 1045.86 168.495 1046.14 168.495C1048.51 161.574 1049.2 154.976 1049.17 147.698C1049.17 146.405 1049.18 145.113 1049.19 143.819C1049.21 138.432 1048.65 133.448 1047.36 128.219C1047.26 127.799 1047.16 127.379 1047.06 126.946C1045.61 121.106 1041.62 114.931 1036.53 111.699C1026.61 105.975 1015.29 107.002 1004.99 111.133Z" fill="#487DBA"/>
<path d="M1498 88C1544.23 88 1544.23 88 1550.03 89.3546C1550.44 89.4463 1550.86 89.5381 1551.28 89.6326C1559.93 91.6059 1568.82 95.3861 1573.82 103.182C1574.11 103.705 1574.4 104.233 1574.68 104.766C1574.83 105.03 1574.97 105.294 1575.12 105.566C1576.66 108.471 1577.52 111.327 1577.95 114.581C1578.08 114.964 1578.22 115.347 1578.36 115.741C1580.21 121.649 1579.13 129.396 1576.72 135.027C1576.6 135.31 1576.48 135.593 1576.36 135.884C1572.49 144.726 1565.93 149.821 1557.55 154.247C1557.76 154.49 1557.96 154.733 1558.17 154.983C1563.55 161.565 1563.55 161.565 1564.08 164.47C1564.35 164.47 1564.62 164.47 1564.89 164.47C1565.44 165.224 1565.44 165.224 1566.09 166.31C1567.37 168.387 1568.71 170.41 1570.1 172.419C1570.29 172.699 1570.48 172.98 1570.68 173.268C1571.42 174.351 1572.16 175.418 1572.98 176.446C1573.46 177.147 1573.46 177.147 1573.46 178.374C1573.73 178.374 1574 178.374 1574.28 178.374C1574.88 179.233 1575.42 180.082 1575.96 180.981C1576.11 181.227 1576.26 181.474 1576.42 181.728C1577.54 183.579 1577.54 183.579 1577.54 184.508C1577.81 184.508 1578.08 184.508 1578.36 184.508C1578.96 185.348 1578.96 185.348 1579.66 186.501C1580.87 188.481 1582.16 190.369 1583.54 192.239C1584.07 193.095 1584.07 193.095 1584.07 194.322C1584.33 194.322 1584.6 194.322 1584.88 194.322C1586.11 196.115 1586.11 196.115 1586.11 197.185C1586.37 197.185 1586.64 197.185 1586.92 197.185C1587.25 197.792 1587.25 197.792 1587.58 198.411C1588.43 199.916 1589.44 201.242 1590.52 202.584C1591 203.319 1591 203.319 1591 204.545C1587.43 204.631 1583.85 204.696 1580.28 204.736C1578.62 204.755 1576.96 204.781 1575.3 204.823C1573.7 204.863 1572.09 204.885 1570.49 204.894C1569.88 204.901 1569.27 204.915 1568.66 204.934C1563.89 205.084 1563.89 205.084 1562.34 203.759C1561.35 202.319 1560.78 200.937 1560.41 199.229C1560.14 199.229 1559.87 199.229 1559.59 199.229C1559.12 198.507 1558.68 197.761 1558.27 197.006C1557.19 195.106 1556.08 193.274 1554.84 191.474C1554.22 190.533 1553.64 189.569 1553.07 188.597C1552.53 187.728 1552 186.859 1551.46 185.99C1550.6 184.588 1549.74 183.188 1548.94 181.747C1548.35 180.733 1547.75 179.777 1547.1 178.808C1544.79 175.368 1542.51 171.858 1540.55 168.202C1539.64 166.502 1538.55 164.953 1537.42 163.39C1536.74 162.418 1536.14 161.398 1535.53 160.381C1531.49 160.246 1527.45 160.111 1523.29 159.972C1523.29 174.681 1523.29 189.39 1523.29 204.545C1514.94 204.545 1506.6 204.545 1498 204.545C1498 166.085 1498 127.625 1498 88ZM1523.29 108.855C1523.29 118.977 1523.29 129.098 1523.29 139.525C1537.15 140.252 1537.15 140.252 1549.27 134.388C1549.73 133.895 1549.73 133.895 1550.21 133.391C1550.43 133.206 1550.65 133.02 1550.87 132.829C1553.67 129.515 1553.22 124.762 1553.07 120.714C1552.78 117.685 1551.24 115.122 1549.06 113.057C1541.82 107.649 1531.58 108.855 1523.29 108.855Z" fill="#46505B"/>
<path d="M871.009 88.0714C871.377 88.0722 871.744 88.0731 872.122 88.0739C872.507 88.0732 872.892 88.0725 873.289 88.0717C874.572 88.0699 875.855 88.0711 877.138 88.0725C878.031 88.0722 878.925 88.0718 879.819 88.0713C881.7 88.0707 883.582 88.0716 885.463 88.0735C887.856 88.0758 890.248 88.0745 892.64 88.072C894.491 88.0705 896.342 88.071 898.193 88.0721C899.074 88.0724 899.954 88.072 900.835 88.0711C904.97 88.0675 909.098 88.0839 913.229 88.3103C913.665 88.3342 913.665 88.3342 914.11 88.3586C916.525 88.509 918.848 88.8798 921.201 89.4341C921.597 89.5255 921.992 89.6169 922.399 89.711C928.481 91.1762 933.528 93.6002 938.409 97.5588C938.409 97.8295 938.409 98.1001 938.409 98.379C938.652 98.4889 938.896 98.5989 939.146 98.7122C940.035 99.1988 940.611 99.6486 941.256 100.429C941.256 100.7 941.256 100.971 941.256 101.25C941.524 101.25 941.793 101.25 942.069 101.25C944.808 104.998 946.883 109.389 947.763 113.962C947.887 114.606 947.887 114.606 948.014 115.263C949.326 123.418 950.063 135.498 945.323 142.668C945.147 143.108 944.971 143.547 944.789 144C944.009 145.908 942.826 147.543 941.663 149.229C941.394 149.635 941.126 150.041 940.849 150.459C940.581 150.459 940.313 150.459 940.036 150.459C939.902 150.865 939.768 151.271 939.629 151.689C938.623 152.735 937.492 153.636 936.376 154.56C936.132 154.769 935.888 154.978 935.637 155.193C929.679 160.033 921.908 162.416 914.415 163.172C914.281 163.307 914.146 163.442 914.008 163.582C907.298 163.582 900.587 163.582 893.674 163.582C893.674 177.25 893.674 190.918 893.674 205C885.219 205 876.764 205 868.052 205C868.044 190.17 868.036 175.341 868.032 160.511C868.031 158.762 868.031 157.013 868.03 155.264C868.03 154.916 868.03 154.568 868.03 154.209C868.028 148.564 868.025 142.918 868.021 137.273C868.017 131.485 868.015 125.696 868.014 119.908C868.014 116.333 868.012 112.759 868.009 109.184C868.006 106.736 868.006 104.288 868.006 101.841C868.007 100.426 868.006 99.0117 868.004 97.5973C868.002 96.0674 868.002 94.5376 868.004 93.0077C868.002 92.5558 868.001 92.1038 868 91.6382C868.001 91.2317 868.002 90.8252 868.002 90.4064C868.002 90.0527 868.002 89.6991 868.002 89.3347C868.116 87.5396 869.553 88.0765 871.009 88.0714ZM893.674 109.041C893.674 120.273 893.674 131.505 893.674 143.078C907.439 143.47 907.439 143.47 919.295 137.337C919.295 137.066 919.295 136.795 919.295 136.517C919.563 136.517 919.832 136.517 920.108 136.517C923.655 132.825 923.391 127.699 923.351 122.889C923.099 118.492 921.301 115.272 918.075 112.322C917.034 111.62 915.986 111.137 914.821 110.681C914.572 110.565 914.322 110.448 914.065 110.327C908.317 107.801 898.996 109.041 893.674 109.041Z" fill="#4886CF"/>
<path d="M1407 88.0505C1423.72 88.0378 1423.72 88.0378 1440.77 88.0248C1444.29 88.0211 1447.82 88.0174 1451.45 88.0135C1455.74 88.0117 1455.74 88.0117 1457.74 88.0113C1459.15 88.0109 1460.56 88.0094 1461.96 88.0072C1463.75 88.0044 1465.54 88.0035 1467.33 88.0041C1467.99 88.004 1468.65 88.0031 1469.31 88.0016C1470.2 87.9996 1471.09 88 1471.97 88.0011C1472.47 88.0008 1472.97 88.0004 1473.48 88C1474.59 88.0505 1474.59 88.0505 1475 88.4608C1475 95.2316 1475 102.002 1475 108.978C1460.99 108.978 1446.98 108.978 1432.55 108.978C1432.55 117.239 1432.55 125.499 1432.55 134.01C1435.37 134.005 1438.19 134 1441.1 133.995C1442.88 133.993 1444.67 133.991 1446.45 133.99C1449.28 133.987 1452.11 133.984 1454.94 133.979C1457.23 133.974 1459.51 133.972 1461.79 133.971C1462.66 133.97 1463.54 133.968 1464.41 133.966C1465.63 133.963 1466.84 133.963 1468.06 133.963C1468.43 133.962 1468.79 133.96 1469.17 133.959C1471.66 133.963 1471.66 133.963 1472.12 134.42C1472.16 135.048 1472.17 135.677 1472.17 136.306C1472.17 136.707 1472.17 137.108 1472.17 137.522C1472.17 138.176 1472.17 138.176 1472.17 138.844C1472.17 139.289 1472.17 139.734 1472.17 140.192C1472.17 141.134 1472.17 142.077 1472.17 143.019C1472.17 144.467 1472.17 145.915 1472.17 147.364C1472.17 148.277 1472.17 149.19 1472.17 150.103C1472.17 150.539 1472.17 150.976 1472.17 151.425C1472.17 152.027 1472.17 152.027 1472.17 152.641C1472.17 152.996 1472.17 153.351 1472.17 153.717C1472.12 154.527 1472.12 154.527 1471.7 154.937C1470.49 154.976 1469.28 154.989 1468.06 154.984C1467.68 154.984 1467.3 154.984 1466.9 154.984C1465.64 154.984 1464.37 154.981 1463.1 154.977C1462.22 154.977 1461.34 154.976 1460.47 154.976C1458.15 154.974 1455.84 154.97 1453.53 154.966C1450.75 154.961 1447.98 154.959 1445.21 154.956C1440.99 154.952 1436.77 154.945 1432.55 154.937C1432.55 164.552 1432.55 174.166 1432.55 184.072C1446.56 184.072 1460.57 184.072 1475 184.072C1475 190.978 1475 197.885 1475 205C1452.56 205 1430.12 205 1407 205C1407 166.407 1407 127.813 1407 88.0505Z" fill="#47596E"/>
<path d="M301 88C309.341 88 317.683 88 326.277 88C327.206 89.8556 327.854 91.4794 328.392 93.4439C329.228 96.3895 330.165 99.2935 331.144 102.195C332.865 107.303 334.528 112.425 336.058 117.594C337.285 121.734 338.599 125.843 339.935 129.948C340.033 130.251 340.132 130.554 340.233 130.866C340.621 132.057 341.008 133.248 341.396 134.439C343.052 139.528 344.652 144.631 346.181 149.76C346.718 151.561 347.269 153.356 347.841 155.146C349.217 159.453 350.394 163.813 351.554 168.182C351.685 168.677 351.817 169.172 351.952 169.682C352.623 172.283 353.148 174.895 353.592 177.544C354.378 176.157 354.718 174.792 355.069 173.243C355.158 172.856 355.158 172.856 355.248 172.461C355.437 171.637 355.623 170.813 355.809 169.989C356.831 165.483 357.857 160.997 359.354 156.621C359.797 155.299 360.211 153.97 360.625 152.639C361.595 149.524 362.585 146.416 363.581 143.31C364.247 141.228 364.89 139.142 365.515 137.048C366.05 135.277 366.611 133.516 367.174 131.754C367.36 131.17 367.36 131.17 367.55 130.573C368.316 128.18 369.099 125.792 369.9 123.411C371.703 118.048 373.449 112.666 375.022 107.232C375.977 103.934 377.057 100.684 378.161 97.4333C378.64 96.0204 379.111 94.6049 379.583 93.1895C380.16 91.4596 380.738 89.7298 381.315 88C389.791 88 398.267 88 407 88C404.829 94.5025 404.829 94.5025 403.799 97.5868C402.914 100.235 402.03 102.884 401.149 105.534C400.749 106.738 400.348 107.942 399.947 109.146C399.759 109.711 399.571 110.276 399.384 110.841C398.303 114.1 397.189 117.343 395.992 120.561C394.86 123.617 393.812 126.665 392.909 129.796C392.259 132.051 391.561 134.263 390.732 136.461C390.154 138.005 389.608 139.56 389.062 141.116C388.37 143.08 387.671 145.04 386.947 146.992C386.329 148.675 385.805 150.372 385.303 152.093C384.856 153.539 384.325 154.951 383.787 156.366C383.428 157.388 383.111 158.405 382.806 159.443C382.051 161.986 381.174 164.484 380.296 166.987C379.977 167.899 379.659 168.811 379.341 169.723C379.19 170.155 379.039 170.587 378.884 171.031C378.408 172.406 377.948 173.786 377.49 175.167C377.187 176.068 376.86 176.959 376.525 177.849C375.746 179.973 375.023 182.113 374.308 184.26C374.189 184.618 374.07 184.976 373.947 185.346C373.393 187.009 372.842 188.674 372.292 190.338C371.81 191.798 371.326 193.256 370.843 194.715C370.693 195.171 370.543 195.628 370.388 196.098C370.242 196.537 370.096 196.976 369.946 197.429C369.819 197.814 369.692 198.198 369.561 198.595C368.911 200.416 368.173 202.205 367.454 204C358.574 204 349.695 204 340.546 204C338.72 200.353 338.72 200.353 338.153 198.547C337.491 196.492 336.805 194.449 336.098 192.41C335.886 191.795 335.674 191.18 335.462 190.565C335.137 189.623 334.811 188.681 334.485 187.739C333.418 184.655 332.355 181.577 331.44 178.443C330.953 176.828 330.384 175.241 329.819 173.652C329.696 173.303 329.573 172.954 329.446 172.595C329.07 171.531 328.693 170.467 328.315 169.404C327.978 168.45 327.64 167.497 327.302 166.544C327.102 165.98 326.902 165.417 326.702 164.853C325.685 161.989 324.729 159.109 323.835 156.205C322.714 152.578 321.466 149.011 320.15 145.45C319.151 142.74 318.213 140.016 317.312 137.272C316.789 135.683 316.243 134.109 315.651 132.543C314.957 130.676 314.395 128.783 313.842 126.87C313.183 124.588 312.477 122.348 311.638 120.124C310.958 118.309 310.321 116.478 309.678 114.65C309.19 113.265 308.698 111.882 308.194 110.504C307.149 107.647 306.256 104.784 305.443 101.853C305.088 100.567 305.088 100.567 304.465 99.193C303.661 97.3181 303.168 95.3872 302.624 93.4232C302.308 92.3562 301.967 91.3765 301.51 90.3658C301 89.2211 301 89.2211 301 88Z" fill="#4981C4"/>
<path d="M751.508 86.0279C751.892 86.0234 752.276 86.0188 752.671 86.0142C753.903 86.0032 755.135 86.0005 756.367 86.0009C756.997 86.0005 756.997 86.0005 757.641 86C763.951 86.0118 769.801 86.3143 775.863 88.2118C776.415 88.3783 776.415 88.3783 776.978 88.5482C779.484 89.3129 781.954 90.1584 784.414 91.0581C784.745 91.1786 785.076 91.2992 785.416 91.4234C787.26 92.0996 789.098 92.7912 790.93 93.4977C790.93 95.1958 790.539 96.3955 789.938 97.945C789.831 98.2235 789.725 98.5021 789.616 98.7891C788.522 101.616 787.322 104.399 786.109 107.176C785.209 109.238 784.372 111.308 783.6 113.421C781.619 113.163 779.838 112.588 777.975 111.897C768.761 108.579 757.029 104.437 747.538 108.768C746.279 109.511 745.435 110.268 744.506 111.388C744.237 111.388 743.968 111.388 743.692 111.388C743.574 111.749 743.456 112.11 743.335 112.481C742.877 113.828 742.877 113.828 742.451 114.795C741.555 117.255 741.757 119.916 742.75 122.316C743.522 123.86 744.462 124.868 745.728 126.026C745.728 126.295 745.728 126.563 745.728 126.839C746.169 126.99 746.169 126.99 746.619 127.144C747.764 127.653 747.764 127.653 748.642 128.398C750.069 129.484 751.552 130.154 753.185 130.88C755.291 131.84 757.333 132.781 759.233 134.115C760.132 134.656 761.078 135.043 762.045 135.446C764.534 136.518 766.933 137.808 769.347 139.038C769.68 139.205 770.013 139.372 770.356 139.544C773.348 141.119 776.084 143.138 778.849 145.073C779.477 145.508 780.113 145.933 780.749 146.357C780.749 146.625 780.749 146.893 780.749 147.17C781.287 147.438 781.825 147.706 782.378 147.983C782.378 148.251 782.378 148.52 782.378 148.796C782.62 148.904 782.861 149.012 783.11 149.123C787.036 151.25 789.178 156.674 790.579 160.697C790.872 161.743 791.13 162.774 791.337 163.841C791.448 164.362 791.448 164.362 791.562 164.894C792.532 172.246 792.052 180.015 788.487 186.611C788.297 186.962 788.108 187.313 787.913 187.675C786.61 189.956 785.137 192.139 783.193 193.929C782.924 193.929 782.655 193.929 782.378 193.929C782.378 194.198 782.378 194.466 782.378 194.743C780.558 196.369 780.558 196.369 779.528 196.369C779.528 196.637 779.528 196.906 779.528 197.182C778.039 198.004 776.545 198.815 775.048 199.622C774.726 199.801 774.405 199.98 774.073 200.165C769.574 202.568 764.608 203.843 759.574 204.501C759.152 204.57 758.731 204.639 758.297 204.709C756.593 204.924 754.943 204.974 753.228 204.976C752.897 204.977 752.566 204.979 752.225 204.98C751.525 204.982 750.825 204.983 750.125 204.983C749.08 204.984 748.036 204.991 746.992 204.999C740.858 205.021 734.82 204.644 728.879 203.027C728.533 202.942 728.188 202.856 727.832 202.768C723.704 201.678 720.034 200.013 716 198.402C716 190.62 716 182.837 716 174.819C720.102 176.184 720.102 176.184 721.518 176.784C725.959 178.629 730.407 180.166 735.036 181.469C735.886 181.712 736.731 181.967 737.575 182.228C741.863 183.531 745.806 183.791 750.258 183.815C750.598 183.817 750.939 183.819 751.289 183.821C755.97 183.808 760.103 183.382 763.748 180.091C766.393 177.146 766.787 174.722 766.671 170.837C766.506 168.515 765.678 167.112 764.053 165.467C763.766 165.165 763.48 164.862 763.184 164.551C760.523 161.959 757.524 160.303 754.28 158.555C753.923 158.337 753.567 158.119 753.199 157.894C752.309 157.373 751.482 157.019 750.513 156.674C747.86 155.647 745.399 154.275 742.898 152.931C741.639 152.254 740.371 151.606 739.085 150.982C734.799 148.846 730.854 146.446 727.402 143.104C727.402 142.835 727.402 142.567 727.402 142.29C727.159 142.181 726.915 142.072 726.664 141.96C725.774 141.478 725.198 141.032 724.552 140.257C724.552 139.989 724.552 139.721 724.552 139.444C724.283 139.444 724.014 139.444 723.737 139.444C717.767 132.02 716.463 122.947 717.306 113.72C718.062 107.547 720.276 101.742 724.552 97.1572C724.821 97.1572 725.089 97.1572 725.366 97.1572C725.501 96.7546 725.635 96.3521 725.773 95.9373C726.042 95.9373 726.311 95.9373 726.588 95.9373C726.722 95.5348 726.857 95.1323 726.995 94.7175C727.264 94.7175 727.533 94.7175 727.81 94.7175C727.81 94.4492 727.81 94.1808 727.81 93.9043C734.132 88.6441 743.393 86.0796 751.508 86.0279Z" fill="#47525F"/>
<path d="M1182 88C1199.49 88 1216.98 88 1235 88C1235 92.8771 1235 97.7541 1235 102.779C1232.42 104.013 1229.84 105.245 1227.25 106.474C1226.97 106.611 1226.68 106.749 1226.38 106.89C1225.64 107.241 1224.91 107.589 1224.17 107.936C1223.76 108.131 1223.35 108.327 1222.92 108.528C1221.95 108.937 1221.95 108.937 1221.14 108.937C1221.27 133.729 1221.41 158.52 1221.55 184.063C1224.1 185.282 1226.66 186.502 1229.29 187.758C1230.37 188.3 1231.44 188.842 1232.55 189.4C1233.36 189.671 1234.17 189.942 1235 190.221C1235 195.098 1235 199.975 1235 205C1217.51 205 1200.02 205 1182 205C1182 200.123 1182 195.246 1182 190.221C1189.09 186.889 1189.09 186.889 1191.68 185.757C1191.96 185.636 1192.23 185.515 1192.51 185.391C1193.62 184.904 1194.71 184.448 1195.86 184.063C1195.73 159.407 1195.59 134.751 1195.45 109.347C1192.09 107.722 1188.73 106.096 1185.26 104.421C1184.19 103.879 1183.11 103.337 1182 102.779C1182 97.9019 1182 93.0248 1182 88Z" fill="#486C98"/>
<path d="M412 88C429.49 88 446.98 88 465 88C465 92.7011 465 97.4021 465 102.246C463.562 103.322 462.671 103.779 461.025 104.357C457.776 105.615 454.663 107.202 451.546 108.758C451.546 133.203 451.546 157.649 451.546 182.835C454.293 184.233 454.293 184.233 457.126 185.43C459.816 186.442 462.395 187.727 465 188.94C465 193.91 465 198.88 465 204C447.51 204 430.02 204 412 204C412 199.165 412 194.329 412 189.347C413.386 188.31 414.352 187.777 415.924 187.16C417.869 186.374 419.741 185.515 421.601 184.549C422.862 183.927 424.162 183.388 425.454 182.835C425.454 158.39 425.454 133.944 425.454 108.758C419.919 105.783 419.919 105.783 414.258 103.456C413.223 103.06 413.223 103.06 412 102.246C412 97.5446 412 92.8435 412 88Z" fill="#4878AF"/>
<path d="M1099 88C1107.23 88 1115.47 88 1123.95 88C1124.73 88.7803 1124.41 89.9288 1124.42 90.967C1124.41 91.5235 1124.41 91.5235 1124.41 92.0912C1124.41 92.4822 1124.41 92.8731 1124.41 93.2759C1124.41 94.5966 1124.41 95.9171 1124.41 97.2377C1124.41 98.1802 1124.41 99.1226 1124.41 100.065C1124.41 102.632 1124.41 105.2 1124.41 107.767C1124.4 110.447 1124.4 113.127 1124.4 115.807C1124.4 120.307 1124.4 124.808 1124.39 129.309C1124.39 133.945 1124.39 138.582 1124.39 143.218C1124.39 143.507 1124.39 143.796 1124.39 144.093C1124.38 146.602 1124.38 149.112 1124.38 151.622C1124.38 162.435 1124.37 173.249 1124.36 184.063C1139.75 184.063 1155.14 184.063 1171 184.063C1171 190.972 1171 197.881 1171 205C1147.24 205 1123.48 205 1099 205C1099 166.39 1099 127.78 1099 88Z" fill="#4876AB"/>
</svg>
